<svg width="1440" height="1024" viewBox="0 0 1440 1024" fill="none" xmlns="http://www.w3.org/2000/svg">
<g opacity="0.25">
<mask id="mask0_413_2948" style="mask-type:luminance" maskUnits="userSpaceOnUse" x="0" y="0" width="1440" height="1024">
<path d="M0 1024L1440 1024L1440 0L0 0L0 1024Z" fill="white"/>
</mask>
<g mask="url(#mask0_413_2948)">
<path d="M1312.83 1047.22L1156.57 980.472L1197.11 841.302L1345.02 1047.22H1345.86L1197.22 840.301L1196.89 839.836L1155.78 980.963L1310.89 1047.22H1312.83Z" fill="#78CDFF"/>
<path d="M884.744 883.708L884.922 883.812L1056.58 984.14L1055.33 984.226L780.68 1002.97L884.744 883.708ZM1054.05 983.525L884.851 884.634L782.385 1002.06L1054.05 983.525Z" fill="#78CDFF"/>
<path d="M112.051 360.09L111.798 361.077L20.3173 716.978L19.9832 716.182L-71.4165 497.834L-71.1611 497.641L112.051 360.09ZM20.1829 715.008L110.966 361.814L-70.6005 498.131L20.1829 715.008Z" fill="#78CDFF"/>
<path d="M1202.99 1047.22L1157.17 981.557L1310.89 1047.22H1312.83L1156.27 980.343L1155.18 979.876L1202.17 1047.22H1202.99Z" fill="#78CDFF"/>
<path d="M979.234 1047.22L1055.3 984.314L1119.2 1047.22H1120.21L1055.49 983.519L1055.33 983.353L978.104 1047.22H979.234Z" fill="#78CDFF"/>
<path d="M775.866 1047.22L781.789 1002.9L1054.17 984.306L978.103 1047.22H979.234L1055.47 984.164L1056.45 983.359L781.517 1002.12L781.273 1002.14L775.25 1047.22H775.866Z" fill="#78CDFF"/>
<path d="M111.594 359.367L111.807 360.88L169.532 772.61L169.06 772.434L19.8623 716.257L19.9621 715.868L111.594 359.367ZM168.758 771.498L111.421 362.535L20.638 715.727L168.758 771.498Z" fill="#78CDFF"/>
<path d="M886.692 882.524L781.551 1003.02L781.354 1002.84L747.318 971.313L747.775 971.022L886.692 882.524ZM781.511 1002.01L882.9 885.817L748.498 971.436L781.511 1002.01Z" fill="#78CDFF"/>
<path d="M503.764 749.277L505.436 749.869L885.654 884.066L884.932 884.527L747.882 971.833L747.734 971.698L503.764 749.277ZM883.941 884.277L506.949 751.221L747.936 970.918L883.941 884.277Z" fill="#78CDFF"/>
<path d="M748.903 1047.22L748.22 972.147L781.2 1002.69L775.25 1047.22H775.866L781.831 1002.59L781.864 1002.34L747.598 970.602L748.295 1047.22H748.903Z" fill="#78CDFF"/>
<path d="M505.286 749.703L505.53 749.926L749.635 972.468L447.229 853.244L505.286 749.703ZM746.183 970.281L505.426 750.793L448.224 852.812L746.183 970.281Z" fill="#78CDFF"/>
<path d="M1446.33 -23.2244L1070.41 167.084L1154.91 -23.2244H1154.2L1069.46 167.659L1069.02 168.632L1448 -23.2244H1446.33Z" fill="#78CDFF"/>
<path d="M1070.88 166.605L983.146 308.824L966.086 239.301L966.309 239.145L1070.88 166.605ZM983.38 307.182L1068.55 169.109L966.816 239.684L983.38 307.182Z" fill="#78CDFF"/>
<path d="M826.811 -23.2244L965.873 239.098H582.666L668.352 -23.2244H667.691L581.929 239.337L581.748 239.886H967.029L827.549 -23.2244H826.811Z" fill="#78CDFF"/>
<path d="M433.375 -23.2244L581.752 239.352L371.159 379.005L357.057 -23.2244H356.448L370.573 379.654L370.595 380.264L582.346 239.843L582.664 239.632L434.127 -23.2244H433.375Z" fill="#78CDFF"/>
<path d="M1366.56 1047.22L1468.52 691.677L1638.32 837.448L1384.76 1047.22H1385.88L1639.04 837.786L1639.44 837.46L1468.54 690.747L1468.22 690.473L1365.91 1047.22H1366.56Z" fill="#78CDFF"/>
<path d="M1345.86 1047.22L1197.52 840.712L1467.84 691.794L1365.91 1047.22H1366.56L1468.66 691.21L1468.9 690.354L1196.88 840.206L1196.48 840.425L1345.02 1047.22H1345.86Z" fill="#78CDFF"/>
<path d="M1268.87 622.096L1269.13 622.184L1469.31 690.989L1468.49 691.438L1196.42 841.316L1196.72 840.415L1268.87 622.096ZM1467.44 691.161L1269.22 623.032L1197.58 839.823L1467.44 691.161Z" fill="#78CDFF"/>
<path d="M1471.09 487.995L1468.67 691.583L1468.29 691.454L1268.2 622.68L1268.91 622.211L1471.09 487.995ZM1468.07 690.565L1470.46 489.296L1269.89 622.447L1468.07 690.565Z" fill="#78CDFF"/>
<path d="M582.781 237.736L582.505 239.569L505.497 751.368L416.139 547.789L416.248 547.586L582.781 237.736ZM505.215 749.13L581.633 241.248L416.857 547.83L505.215 749.13Z" fill="#78CDFF"/>
<path d="M583.154 238.422L582.457 239.716L416.409 548.665L416.212 547.94L370.502 379.441L370.738 379.283L583.154 238.422ZM416.588 546.953L581.263 240.562L371.251 379.828L416.588 546.953Z" fill="#78CDFF"/>
<path d="M415.991 545.859L416.761 547.613L505.716 750.274L505.601 750.481L447.525 854.057L447.425 853.08L415.991 545.859ZM504.996 750.221L417.005 549.757L447.93 851.999L504.996 750.221Z" fill="#78CDFF"/>
<path d="M109.972 360.446L111.525 360.556L371.096 379.255L371.163 379.502L417.026 548.567L109.972 360.446ZM370.656 380.012L113.044 361.455L415.97 547.049L370.656 380.012Z" fill="#78CDFF"/>
<path d="M111.104 360.268L111.638 360.595L417.103 547.742L168.931 772.731L111.104 360.268ZM415.895 547.875L111.913 361.634L169.359 771.377L415.895 547.875Z" fill="#78CDFF"/>
<path d="M416.692 546.699L416.801 547.756L448.07 853.359L242.974 894.036L416.692 546.699ZM447.387 852.697L416.306 548.919L244.22 892.991L447.387 852.697Z" fill="#78CDFF"/>
<path d="M417.6 546.328L243.621 894.187L243.358 893.757L168.704 771.969L168.969 771.729L417.6 546.328ZM243.571 892.84L415.396 549.29L169.584 772.137L243.571 892.84Z" fill="#78CDFF"/>
<path d="M1385.88 1047.22L1638.62 838.14L1641.24 884.402V873.654L1639.15 836.768L1384.75 1047.22H1385.88Z" fill="#78CDFF"/>
<path d="M-153.423 494.447L-70.8251 497.594L-70.7406 497.795L21.4943 718.135L-153.423 494.447ZM-71.1918 498.371L-151.895 495.292L19.0079 713.849L-71.1918 498.371Z" fill="#78CDFF"/>
<path d="M-201.239 681.15L-152.527 495.591L19.6396 715.764L-201.239 779.114V779.921L20.3155 716.378L20.8607 716.22L-152.446 494.59L-152.792 494.147L-201.239 678.703V681.15Z" fill="#78CDFF"/>
<path d="M997.046 -23.2244L1069.31 167.69L966.716 238.86L950 -23.2244H949.39L966.147 239.524L966.186 240.122L1069.86 168.206L1070.12 168.026L997.724 -23.2244H997.046Z" fill="#78CDFF"/>
<path d="M949.39 -23.2244L966.054 238.047L827.549 -23.2244H826.811L966.201 239.714L966.848 240.935L950 -23.2244H949.39Z" fill="#78CDFF"/>
<path d="M356.448 -23.2244L370.5 377.612L230.001 -23.2244H229.332L371.251 381.657L357.057 -23.2244H356.448Z" fill="#78CDFF"/>
<path d="M229.332 -23.2244L370.391 379.206L111.878 360.583L173.303 -23.2244H172.681L111.21 360.872L111.139 361.318L370.859 380.029L371.36 380.064L230 -23.2244H229.332Z" fill="#78CDFF"/>
<path d="M1154.2 -23.2244L1070.24 165.894L1090.91 -23.2244H1090.29L1069.2 169.822L1154.91 -23.2244H1154.2Z" fill="#78CDFF"/>
<path d="M1090.3 -23.2244L1069.56 166.535L997.724 -23.2244H997.047L1069.45 168.032L1069.88 169.179L1090.91 -23.2244H1090.3Z" fill="#78CDFF"/>
<path d="M1515.32 -23.2244L1470.51 488.192L1209.58 435.413L1496.51 -23.2244H1495.73L1208.77 435.448L1208.44 435.98L1470.73 489.036L1471.04 489.097L1515.93 -23.2244H1515.32Z" fill="#78CDFF"/>
<path d="M1495.73 -23.2244L1209.03 435.034L1070.18 168.045L1448.01 -23.2244H1446.33L1069.61 167.492L1069.25 167.67L1208.76 435.917L1208.99 436.359L1496.51 -23.2244H1495.73Z" fill="#78CDFF"/>
<path d="M1208.52 435.2L1209.06 435.308L1471.75 488.446L1470.91 488.999L1268.89 623.11L1268.77 622.715L1208.52 435.2ZM1469.8 488.847L1209.5 436.193L1269.2 622.019L1469.8 488.847Z" fill="#78CDFF"/>
<path d="M1209.16 435.143L1209.29 435.546L1269.7 623.581L1268.88 622.895L1119.55 497.953L1209.16 435.143ZM1268.39 621.545L1208.86 436.251L1120.75 498.01L1268.39 621.545Z" fill="#78CDFF"/>
<path d="M982.037 306.88L983.383 307.64L1209.7 435.657L1120.09 498.471L1119.93 498.25L982.037 306.88ZM1208.32 435.734L984.487 309.125L1120.21 497.492L1208.32 435.734Z" fill="#78CDFF"/>
<path d="M1069.74 167.193L1069.97 167.637L1209.85 436.601L982.777 308.158L983.025 307.757L1069.74 167.193ZM1208.17 434.792L1069.7 168.522L983.746 307.845L1208.17 434.792Z" fill="#78CDFF"/>
<path d="M169.211 771.529L169.382 771.809L244.176 893.827L243.629 893.905L-21.8249 931.461L169.211 771.529ZM243.014 893.2L169.077 772.579L-19.3366 930.316L243.014 893.2Z" fill="#78CDFF"/>
<path d="M20.0312 715.499L20.3365 715.614L169.872 771.918L169.311 772.387L-21.0568 931.76L-20.8744 930.795L20.0312 715.499ZM168.42 772.19L20.469 716.485L-20.1025 930.019L168.42 772.19Z" fill="#78CDFF"/>
<path d="M-201.239 779.921L19.8393 716.513L-20.7802 930.304L-201.239 806.572V807.463L-20.7207 931.236L-20.377 931.473L20.663 715.471L-201.239 779.114V779.921Z" fill="#78CDFF"/>
<path d="M1269.97 620.761L1269.33 622.719L1197.2 840.964H1105.02L1105.52 840.296L1269.97 620.761ZM1196.8 840.176L1268.12 624.368L1106.46 840.176H1196.8Z" fill="#78CDFF"/>
<path d="M1119.87 497.283L1269.52 622.494L1269.26 622.838L1105.39 841.599L1105.44 840.548L1119.87 497.283ZM1268.57 622.635L1120.42 498.682L1106.09 839.541L1268.57 622.635Z" fill="#78CDFF"/>
<path d="M1105.26 840.176H1197.44L1197.28 840.708L1156.2 981.731L1105.26 840.176ZM1196.56 840.964H1106.22L1156.14 979.704L1196.56 840.964Z" fill="#78CDFF"/>
<path d="M1106.25 840.071L1106.02 840.733L1055.46 984.353L1055.19 984.191L883.735 883.98L884.753 883.78L1106.25 840.071ZM1055.16 983.312L1105.23 841.069L885.861 884.361L1055.16 983.312Z" fill="#78CDFF"/>
<path d="M667.691 -23.2244L583.667 234.017L637.388 -23.2244H636.758L581.915 239.389L582.488 239.645L668.352 -23.2244H667.691Z" fill="#78CDFF"/>
<path d="M636.758 -23.2244L582.081 238.598L434.127 -23.2244H433.375L581.963 239.724L582.336 240.384L637.388 -23.2244H636.758Z" fill="#78CDFF"/>
<path d="M25.6145 1047.22L-20.1084 931.217L242.371 894.083L62.1272 1047.22H63.235L244.821 892.944L-20.6133 930.496L-21.0511 930.56L24.931 1047.22H25.6145Z" fill="#78CDFF"/>
<path d="M-74.8264 1047.22L-20.6017 931.694L24.9311 1047.22H25.6146L-20.308 930.709L-20.5557 930.083L-75.5368 1047.22H-74.8264Z" fill="#78CDFF"/>
<path d="M172.683 -23.2244L111.323 360.165L8.63407 230.087L135.515 -23.2244H134.792L7.98895 229.931L7.85263 230.201L111.296 361.232L111.692 361.736L173.303 -23.2244H172.683Z" fill="#78CDFF"/>
<path d="M134.791 -23.2244L8.57642 228.753L14.0465 -23.2244H13.4379L7.90826 231.535L135.515 -23.2244H134.791Z" fill="#78CDFF"/>
<path d="M8.12536 229.444L112.007 361.032L111.661 361.292L-71.6007 498.881L8.12536 229.444ZM111.01 360.87L8.36152 230.844L-70.4161 497.082L111.01 360.87Z" fill="#78CDFF"/>
<path d="M13.4379 -23.2244L7.95244 229.468L-176.21 89.8969L-103.373 -23.2244H-104.164L-176.907 89.7495L-177.137 90.1058L8.53229 230.82L14.0465 -23.2244H13.4379Z" fill="#78CDFF"/>
<path d="M8.78772 229.403L8.5266 230.285L-70.8884 498.678L-71.2187 498.266L-194.026 345.256L-193.611 345.018L8.78772 229.403ZM-71.1284 497.287L7.69716 230.887L-192.952 345.504L-71.1284 497.287Z" fill="#78CDFF"/>
<path d="M-176.936 89.3459L-176.521 89.6593L8.91049 230.191L8.36522 230.502L-193.836 346.003L-193.792 345.342L-176.936 89.3459ZM7.5761 230.095L-176.412 90.6546L-193.141 344.75L7.5761 230.095Z" fill="#78CDFF"/>
<path d="M1176.16 1047.22L1125.66 984.158L1156.05 981.125L1202.17 1047.22H1202.99L1156.4 980.453L1156.3 980.31L1124.26 983.509L1175.28 1047.22H1176.16Z" fill="#78CDFF"/>
<path d="M1120.21 1047.22L1056.21 984.228H1124.83L1175.28 1047.22H1176.16L1125.17 983.55L1125.08 983.439H1054.41L1119.2 1047.22H1120.21Z" fill="#78CDFF"/>
<path d="M1105.05 837.716L1156.64 981.066L1124.71 984.252L1124.66 983.9L1105.05 837.716ZM1155.71 980.367L1106.43 843.422L1125.21 983.413L1155.71 980.367Z" fill="#78CDFF"/>
<path d="M1105.87 839.248L1125.32 984.228H1054.84L1055.03 983.671L1105.87 839.248ZM1124.6 983.439L1105.61 841.892L1055.78 983.439H1124.6Z" fill="#78CDFF"/>
<path d="M645.44 1047.22L747.611 972.048L748.295 1047.22H748.903L748.214 971.37L748.207 970.703L644.208 1047.22H645.44Z" fill="#78CDFF"/>
<path d="M427.726 1047.22L447.982 853.539L747.145 971.485L644.208 1047.22H645.441L748.061 971.719L748.675 971.264L447.817 852.65L447.475 852.517L427.114 1047.22H427.726Z" fill="#78CDFF"/>
<path d="M321.847 1047.22L244.11 893.811L447.373 853.498L427.113 1047.22H427.726L448.084 852.558L243.55 893.125L243.081 893.217L321.122 1047.22H321.847Z" fill="#78CDFF"/>
<path d="M934.669 488.223L935.245 488.251L1120.47 497.602L1120.45 498.002L1105.99 841.826L1105.48 840.776L934.669 488.223ZM1119.83 498.36L935.798 489.068L1105.49 839.309L1119.83 498.36Z" fill="#78CDFF"/>
<path d="M983.14 307.253L1120.88 498.411L1120.14 498.375L934.811 489.017L934.946 488.518L983.14 307.253ZM1119.42 497.551L983.385 308.75L935.654 488.274L1119.42 497.551Z" fill="#78CDFF"/>
<path d="M935.065 487.555L935.491 488.436L1106.25 840.868L1105.79 840.958L884.429 884.642L884.498 884.105L935.065 487.555ZM1105.24 840.27L935.403 489.734L885.166 883.7L1105.24 840.27Z" fill="#78CDFF"/>
<path d="M966.355 237.801L983.583 308.007L983.55 308.13L935.522 488.774L934.934 488.583L966.355 237.801ZM982.942 307.997L966.547 241.181L936.101 484.168L982.942 307.997Z" fill="#78CDFF"/>
<path d="M581.013 239.098H966.808L966.75 239.554L935.464 489.257L935.088 488.993L581.013 239.098ZM966.094 239.886H583.401L935.001 488.034L966.094 239.886Z" fill="#78CDFF"/>
<path d="M935.627 487.969L885.043 884.664L884.718 884.55L504.48 750.346L505.229 749.89L935.627 487.969ZM884.551 883.677L934.838 489.32L506.235 750.15L884.551 883.677Z" fill="#78CDFF"/>
<path d="M581.988 238.889L582.353 239.147L935.906 488.673L935.362 489.005L504.943 750.936L505.058 750.174L581.988 238.889ZM934.562 488.62L582.428 240.095L505.77 749.562L934.562 488.62Z" fill="#78CDFF"/>
<path d="M245.942 1047.22L243.919 894.867L321.12 1047.22H321.848L243.275 892.16L245.334 1047.22H245.942Z" fill="#78CDFF"/>
<path d="M63.2351 1047.22L243.302 894.235L245.334 1047.22H245.942L243.89 892.791L62.1254 1047.22H63.2351Z" fill="#78CDFF"/>
<path d="M1185.72 841.66C1185.72 834.621 1191.07 828.916 1197.67 828.916C1204.27 828.916 1209.62 834.621 1209.62 841.66C1209.62 848.699 1204.27 854.405 1197.67 854.405C1191.08 854.405 1185.72 848.699 1185.72 841.66Z" fill="#78CDFF"/>
<path d="M1255.57 623.581C1255.57 616.542 1260.92 610.836 1267.52 610.836C1274.12 610.836 1279.47 616.542 1279.47 623.581C1279.47 630.62 1274.12 636.326 1267.52 636.326C1260.92 636.326 1255.57 630.62 1255.57 623.581Z" fill="#78CDFF"/>
<path d="M1093.32 840.108C1093.32 833.069 1098.67 827.363 1105.27 827.363C1111.87 827.363 1117.22 833.069 1117.22 840.108C1117.22 847.147 1111.87 852.853 1105.27 852.853C1098.67 852.855 1093.32 847.147 1093.32 840.108Z" fill="#78CDFF"/>
<path d="M1108.26 497.49C1108.26 490.451 1113.61 484.745 1120.21 484.745C1126.81 484.745 1132.16 490.451 1132.16 497.49C1132.16 504.529 1126.81 510.235 1120.21 510.235C1113.61 510.237 1108.26 504.529 1108.26 497.49Z" fill="#78CDFF"/>
<path d="M1197.03 433.852C1197.03 426.813 1202.38 421.108 1208.98 421.108C1215.57 421.108 1220.92 426.813 1220.92 433.852C1220.92 440.891 1215.57 446.597 1208.98 446.597C1202.38 446.597 1197.03 440.891 1197.03 433.852Z" fill="#78CDFF"/>
<path d="M972.933 311.23C972.933 304.191 978.282 298.486 984.881 298.486C991.48 298.486 996.829 304.191 996.829 311.23C996.829 318.269 991.48 323.975 984.881 323.975C978.282 323.975 972.933 318.269 972.933 311.23Z" fill="#78CDFF"/>
<path d="M1057.33 166.879C1057.33 159.84 1062.68 154.135 1069.28 154.135C1075.88 154.135 1081.23 159.84 1081.23 166.879C1081.23 173.918 1075.88 179.624 1069.28 179.624C1062.68 179.624 1057.33 173.918 1057.33 166.879Z" fill="#78CDFF"/>
<path d="M952.56 238.279C952.56 231.24 957.909 225.534 964.508 225.534C971.107 225.534 976.456 231.24 976.456 238.279C976.456 245.318 971.107 251.023 964.508 251.023C957.911 251.023 952.56 245.318 952.56 238.279Z" fill="#78CDFF"/>
<path d="M571.309 239.831C571.309 232.792 576.658 227.086 583.258 227.086C589.857 227.086 595.206 232.792 595.206 239.831C595.206 246.87 589.857 252.576 583.258 252.576C576.658 252.576 571.309 246.87 571.309 239.831Z" fill="#78CDFF"/>
<path d="M354.491 374.87C354.491 367.831 359.841 362.125 366.44 362.125C373.039 362.125 378.388 367.831 378.388 374.87C378.388 381.909 373.039 387.615 366.44 387.615C359.841 387.615 354.491 381.909 354.491 374.87Z" fill="#78CDFF"/>
<path d="M402.511 551.817C402.511 544.778 407.86 539.073 414.459 539.073C421.058 539.073 426.407 544.778 426.407 551.817C426.407 558.856 421.058 564.562 414.459 564.562C407.862 564.562 402.511 558.856 402.511 551.817Z" fill="#78CDFF"/>
<path d="M507.59 761.686C514.189 761.686 519.538 755.98 519.538 748.941C519.538 741.903 514.189 736.197 507.59 736.197C500.991 736.197 495.642 741.903 495.642 748.941C495.642 755.98 500.991 761.686 507.59 761.686Z" fill="#78CDFF"/>
<path d="M433.069 852.937C433.069 845.898 438.419 840.192 445.018 840.192C451.617 840.192 456.966 845.898 456.966 852.937C456.966 859.976 451.617 865.681 445.018 865.681C438.419 865.683 433.069 859.976 433.069 852.937Z" fill="#78CDFF"/>
<path d="M230.803 891.742C230.803 884.703 236.152 878.997 242.751 878.997C249.35 878.997 254.699 884.703 254.699 891.742C254.699 898.781 249.35 904.487 242.751 904.487C236.152 904.487 230.803 898.781 230.803 891.742Z" fill="#78CDFF"/>
<path d="M152.223 769.12C152.223 762.081 157.572 756.375 164.171 756.375C170.771 756.375 176.12 762.081 176.12 769.12C176.12 776.159 170.771 781.865 164.171 781.865C157.574 781.865 152.223 776.159 152.223 769.12Z" fill="#78CDFF"/>
<path d="M96.9272 359.348C96.9272 352.309 102.276 346.604 108.875 346.604C115.474 346.604 120.824 352.309 120.824 359.348C120.824 366.387 115.474 372.093 108.875 372.093C102.278 372.093 96.9272 366.387 96.9272 359.348Z" fill="#78CDFF"/>
<path d="M20.1119 729.092C26.7106 729.092 32.06 723.386 32.06 716.347C32.06 709.309 26.7106 703.603 20.1119 703.603C13.5131 703.603 8.1637 709.309 8.1637 716.347C8.1637 723.386 13.5131 729.092 20.1119 729.092Z" fill="#78CDFF"/>
<path d="M924.912 489.73C924.912 482.691 930.261 476.985 936.86 476.985C943.459 476.985 948.808 482.691 948.808 489.73C948.808 496.769 943.459 502.475 936.86 502.475C930.263 502.475 924.912 496.769 924.912 489.73Z" fill="#78CDFF"/>
<path d="M1144.64 980.216C1144.64 973.177 1149.99 967.471 1156.59 967.471C1163.19 967.471 1168.54 973.177 1168.54 980.216C1168.54 987.255 1163.19 992.96 1156.59 992.96C1149.99 992.96 1144.64 987.255 1144.64 980.216Z" fill="#78CDFF"/>
<path d="M1044.24 986.423C1044.24 979.384 1049.59 973.679 1056.18 973.679C1062.78 973.679 1068.13 979.384 1068.13 986.423C1068.13 993.462 1062.78 999.168 1056.18 999.168C1049.59 999.17 1044.24 993.462 1044.24 986.423Z" fill="#78CDFF"/>
<path d="M738.653 970.901C738.653 963.862 744.002 958.157 750.601 958.157C757.2 958.157 762.549 963.862 762.549 970.901C762.549 977.94 757.2 983.646 750.601 983.646C744.002 983.648 738.653 977.94 738.653 970.901Z" fill="#78CDFF"/>
<path d="M869.955 882.792C869.955 875.753 875.304 870.048 881.904 870.048C888.503 870.048 893.852 875.753 893.852 882.792C893.852 889.831 888.503 895.537 881.904 895.537C875.304 895.539 869.955 889.831 869.955 882.792Z" fill="#78CDFF"/>
</g>
</g>
</svg>
