<svg width="300" height="60" viewBox="0 0 300 60" fill="none" xmlns="http://www.w3.org/2000/svg">
<g clip-path="url(#clip0_152_493)">
<path d="M80.577 27.2367C83.3476 27.8602 85.2899 28.6255 86.4039 29.5607C87.174 30.1501 87.7928 30.9118 88.2097 31.7836C88.6267 32.6554 88.83 33.6126 88.8032 34.5773C88.8032 36.7596 87.9177 38.5452 86.1468 39.9623C84.3759 41.3794 80.8626 42.5414 76.7209 42.5414H61.9252V41.7478C63.2676 41.7478 64.1817 41.6344 64.6672 41.3794C65.1034 41.1834 65.4569 40.8426 65.667 40.4157C65.8669 40.0189 65.9812 39.027 65.9812 37.4682V18.7341C65.9812 17.147 65.8669 16.1833 65.667 15.7582C65.4569 15.3313 65.1034 14.9905 64.6672 14.7946C64.1817 14.5678 63.2676 14.4261 61.9252 14.4261V13.6609H75.8926C79.2345 13.6609 81.5767 13.9443 82.9763 14.5395C84.3061 15.0826 85.4476 15.9986 86.2611 17.1753C87.0389 18.2704 87.4578 19.5767 87.4607 20.9164C87.4589 22.3017 86.9163 23.6324 85.9469 24.6292C84.9186 25.7346 83.1477 26.5848 80.577 27.2367ZM72.7507 28.3137V38.6585C72.7507 39.4238 72.9506 39.9906 73.3505 40.3874C73.7504 40.7842 74.3216 40.9826 75.0928 40.9826C76.1972 40.9913 77.2865 40.7284 78.2634 40.2173C79.2175 39.7254 79.9955 38.9534 80.4913 38.0067C81.0168 37.0209 81.2821 35.9191 81.2625 34.804C81.2792 33.5331 80.9538 32.2807 80.3199 31.1762C79.748 30.1481 78.8269 29.3547 77.7207 28.9372C76.5781 28.5121 74.95 28.2854 72.7507 28.3137ZM72.7507 26.6415C74.7786 26.6415 76.2925 26.4148 77.2636 25.9613C78.1706 25.5593 78.9363 24.8982 79.463 24.0624C80.0306 23.1022 80.3082 22.0004 80.2628 20.8881C80.3082 19.7884 80.041 18.6983 79.4916 17.7421C78.9746 16.9224 78.217 16.2795 77.3208 15.8999C76.3496 15.4464 74.8358 15.248 72.7507 15.2764V26.6415Z" fill="#38B6FF"/>
<path d="M106.455 41.7478V42.5414H91.2311V41.7478H92.2022C92.9034 41.7765 93.6007 41.6303 94.2302 41.3227C94.6357 41.0891 94.9406 40.7159 95.0871 40.274C95.2585 39.9339 95.3156 39.0553 95.3156 37.6099V18.5924C95.3156 17.1186 95.2585 16.1833 95.0871 15.8149C94.8844 15.4022 94.5542 15.0646 94.1445 14.8513C93.5462 14.5422 92.8761 14.3955 92.2022 14.4261H91.2311V13.6609H106.455V14.4261H105.484C104.78 14.405 104.083 14.561 103.456 14.8796C103.05 15.1069 102.737 15.4678 102.571 15.8999C102.399 16.24 102.342 17.147 102.342 18.5924V37.6099C102.342 39.0837 102.399 39.9906 102.571 40.3874C102.786 40.8009 103.125 41.1377 103.542 41.351C104.148 41.6363 104.814 41.7724 105.484 41.7478H106.455Z" fill="#38B6FF"/>
<path d="M137.818 12.9807V23.1838H137.018C136.047 20.3779 134.619 18.2806 132.705 16.8352C130.922 15.4187 128.705 14.6488 126.421 14.6529C124.222 14.6529 122.422 15.248 120.965 16.4668C119.509 17.6855 118.509 19.386 117.909 21.5683C117.302 23.7468 116.994 25.9968 116.995 28.257C116.959 30.721 117.296 33.1763 117.995 35.5409C118.661 37.6382 119.718 39.1687 121.165 40.1323C122.726 41.1419 124.559 41.656 126.421 41.6061C127.141 41.5978 127.858 41.5219 128.563 41.3794C129.332 41.224 130.087 41.0059 130.82 40.7275V34.719C130.82 33.5853 130.763 32.8484 130.591 32.5083C130.363 32.119 130.026 31.8039 129.62 31.6014C129.062 31.3245 128.444 31.1883 127.821 31.2046H127.078V30.411H141.217V31.2046C140.16 31.2896 139.417 31.4313 138.989 31.6581C138.542 31.8854 138.196 32.2691 138.018 32.7351C137.875 33.0185 137.818 33.6703 137.818 34.719V40.7275C135.948 41.5538 133.994 42.1808 131.991 42.5981C129.934 43.0242 127.837 43.2332 125.736 43.2216C122.965 43.2216 120.68 42.8531 118.852 42.1163C117.092 41.3995 115.462 40.404 114.025 39.1687C112.679 38.0164 111.564 36.6221 110.74 35.0591C109.723 33.0162 109.214 30.7617 109.254 28.4838C109.254 24.1474 110.797 20.463 113.853 17.4587C116.909 14.4545 120.823 12.9523 125.478 12.9523C126.792 12.9488 128.102 13.0722 129.392 13.3208C130.436 13.5553 131.459 13.8777 132.448 14.2844C133.876 14.8229 134.704 15.078 134.961 15.078C135.372 15.0733 135.767 14.9224 136.075 14.6529C136.418 14.3411 136.732 13.8026 137.018 12.9807H137.818Z" fill="#38B6FF"/>
<path d="M153.242 42.5414V41.7478H154.213C155.07 41.7478 155.727 41.6344 156.155 41.351C156.605 41.1189 156.959 40.7378 157.155 40.274C157.298 39.9906 157.355 39.0837 157.355 37.6099V18.5924C157.355 17.1186 157.269 16.1833 157.127 15.8149C156.912 15.4013 156.572 15.0645 156.155 14.8513C155.559 14.5356 154.888 14.3885 154.213 14.4261H153.242V13.6609H166.295C169.78 13.6609 172.579 14.1144 174.693 15.0496C177.172 16.1093 179.237 17.9395 180.577 20.2646C181.706 22.3214 182.382 24.593 182.559 26.9286C182.737 29.2642 182.411 31.6106 181.605 33.812C181.035 35.3667 180.172 36.7998 179.063 38.035C178.03 39.145 176.8 40.0576 175.436 40.7275C173.839 41.4725 172.148 41.997 170.408 42.2863C169.048 42.4917 167.671 42.577 166.295 42.5414H153.242ZM164.353 15.2764V37.8366C164.353 39.027 164.41 39.7639 164.524 40.0189C164.636 40.2954 164.851 40.5186 165.124 40.6425C165.637 40.8987 166.208 41.016 166.781 40.9826C169.18 40.9826 171.008 40.1607 172.265 38.5452C173.979 36.3534 174.836 32.9523 174.836 28.342C174.836 24.6576 174.265 21.6817 173.093 19.471C172.151 17.7421 170.951 16.5518 169.494 15.9282C168.466 15.4748 166.752 15.2764 164.353 15.2764Z" fill="#38B6FF"/>
<path d="M196.115 29.3624V37.4682C196.115 39.027 196.23 40.0189 196.43 40.4157C196.63 40.8562 196.985 41.2089 197.429 41.4077C197.905 41.6344 198.819 41.7478 200.171 41.7478V42.5414H185.261V41.7478C186.604 41.7478 187.518 41.6344 188.003 41.3794C188.433 41.1742 188.784 40.836 189.003 40.4157C189.203 40.0189 189.289 39.027 189.289 37.4682V18.7341C189.289 17.147 189.203 16.1833 189.003 15.7582C188.772 15.3372 188.412 14.9998 187.975 14.7946C187.489 14.5678 186.575 14.4261 185.261 14.4261V13.6609H198.8C202.314 13.6609 204.884 13.8876 206.512 14.3694C208.091 14.8253 209.488 15.7561 210.511 17.0336C211.542 18.3427 212.087 19.9641 212.054 21.625C212.079 22.618 211.886 23.6046 211.486 24.5153C211.086 25.426 210.49 26.2388 209.74 26.8966C208.769 27.7752 207.369 28.4554 205.598 28.8805L212.596 38.6585C213.51 39.9434 214.167 40.7369 214.567 41.0393C215.153 41.4782 215.862 41.7258 216.595 41.7478V42.5414H207.426L198.029 29.3624H196.115ZM196.115 15.1914V27.8602H197.344C199.343 27.8602 200.828 27.6902 201.828 27.3217C202.802 26.9509 203.618 26.2608 204.142 25.3661C204.713 24.4025 204.999 23.1838 204.999 21.6533C204.999 19.471 204.484 17.8272 203.428 16.7785C202.371 15.7299 200.743 15.1914 198.429 15.1914H196.115Z" fill="#38B6FF"/>
<path d="M233.191 13.2357C237.846 13.0657 241.617 14.4261 244.502 17.2603C247.386 20.0945 248.843 23.6939 248.843 28.0019C248.843 31.658 247.786 34.889 245.616 37.6665C242.759 41.351 238.703 43.2216 233.476 43.2216C228.249 43.2216 224.193 41.436 221.308 37.9216C219.052 35.1441 217.938 31.8281 217.938 28.0019C217.938 23.7223 219.394 20.1512 222.336 17.2886C225.278 14.4261 228.906 13.0657 233.191 13.2357ZM233.448 14.5962C230.791 14.5962 228.763 15.9566 227.364 18.6491C226.25 20.8597 225.678 24.0624 225.678 28.2003C225.678 33.1318 226.564 36.7879 228.306 39.1403C229.506 40.7842 231.22 41.6061 233.419 41.6061C234.728 41.6536 236.019 41.2863 237.104 40.5574C238.36 39.6221 239.36 38.1767 240.046 36.1928C240.731 34.2088 241.103 31.573 241.103 28.3704C241.103 24.5442 240.731 21.6817 240.017 19.7827C239.303 17.8838 238.389 16.5518 237.275 15.7865C236.165 14.9855 234.82 14.5674 233.448 14.5962Z" fill="#38B6FF"/>
<path d="M262.296 29.4757V37.4682C262.296 39.027 262.411 40.0189 262.582 40.4157C262.804 40.8511 263.166 41.2003 263.61 41.4077C264.125 41.6344 265.01 41.7478 266.324 41.7478V42.5414H251.528V41.7478C252.899 41.7478 253.785 41.6344 254.27 41.3794C254.707 41.1741 255.067 40.8368 255.298 40.4157C255.47 40.0189 255.584 39.027 255.584 37.4682V18.7341C255.584 17.147 255.47 16.1833 255.298 15.7582C255.067 15.3372 254.707 14.9998 254.27 14.7946C253.785 14.5678 252.871 14.4261 251.528 14.4261V13.6609H264.239C268.409 13.6609 271.408 14.3978 273.236 15.8716C275.064 17.3453 275.95 19.1876 275.95 21.3983C275.994 23.1636 275.373 24.8819 274.207 26.2164C273.036 27.5485 271.408 28.4554 269.352 28.9372C267.952 29.2773 265.61 29.4757 262.296 29.4757ZM262.296 15.3047V27.8035H263.382C265.134 27.8035 266.476 27.2934 267.409 26.2731C268.352 25.2244 268.837 23.6373 268.837 21.4833C268.837 19.3293 268.352 17.7705 267.409 16.7785C266.467 15.7865 265.067 15.2764 263.182 15.2764L262.296 15.3047Z" fill="#38B6FF"/>
<path d="M297.943 12.9806L298.2 22.6169H297.315C296.887 20.2078 295.887 18.2522 294.259 16.7784C292.631 15.3047 290.86 14.5961 288.975 14.5961C287.518 14.5961 286.347 14.9646 285.518 15.7581C285.121 16.0818 284.799 16.4881 284.577 16.9485C284.355 17.4088 284.238 17.9119 284.233 18.4223C284.214 19.0213 284.373 19.6126 284.69 20.1228C285.213 20.9127 285.893 21.5879 286.689 22.1067C287.346 22.5886 288.917 23.4105 291.345 24.6008C294.744 26.273 297.058 27.8318 298.229 29.3056C299.391 30.7435 300.017 32.5357 300 34.3788C300 36.7879 299.057 38.8852 297.144 40.6141C295.23 42.3429 292.831 43.2215 289.917 43.2215C289.042 43.23 288.17 43.1348 287.318 42.9381C286.271 42.6884 285.248 42.347 284.262 41.9178C283.723 41.6689 283.141 41.5246 282.548 41.4927C282.123 41.5107 281.713 41.6592 281.377 41.9178C280.92 42.244 280.572 42.6979 280.377 43.2215H279.577V32.3099H280.377C281.005 35.3708 282.205 37.6948 284.005 39.3103C285.804 40.9258 287.746 41.7477 289.803 41.7477C291.859 41.7477 292.688 41.2943 293.659 40.444C294.63 39.5938 295.087 38.5734 295.087 37.4114C295.075 36.7119 294.878 36.0278 294.516 35.4275C294.102 34.7114 293.537 34.0926 292.859 33.6136C292.116 33.0184 290.803 32.2815 288.917 31.3462C286.261 30.0708 284.347 28.9655 283.205 28.0586C282.108 27.2315 281.194 26.1897 280.52 24.9976C279.889 23.8714 279.564 22.6017 279.577 21.3132C279.561 20.206 279.781 19.108 280.225 18.0917C280.668 17.0755 281.323 16.1641 282.148 15.418C283.862 13.8025 286.004 12.9806 288.603 12.9806C289.528 12.9785 290.449 13.0928 291.345 13.3207C292.195 13.5585 293.018 13.8814 293.802 14.2844C294.773 14.7378 295.43 14.9646 295.83 14.9646C295.993 14.9724 296.156 14.9461 296.309 14.8875C296.461 14.829 296.6 14.7393 296.715 14.6245C296.915 14.3977 297.115 13.8592 297.315 12.9806H297.943Z" fill="#38B6FF"/>
<path d="M85.5756 55.5787L82.0051 47.8413V53.9915C82.0051 54.5584 82.0623 54.8985 82.1765 55.0402C82.2795 55.1444 82.405 55.2241 82.5435 55.2732C82.6821 55.3223 82.8301 55.3396 82.9763 55.3236H83.3191V55.5787H80.0914V55.3236H80.4056C80.5615 55.3423 80.7196 55.3208 80.8647 55.2612C81.0098 55.2017 81.1369 55.106 81.2339 54.9835C81.3482 54.8418 81.4053 54.5017 81.4053 53.9915V47.983C81.4199 47.6835 81.3712 47.3842 81.2625 47.1044C81.1961 46.9518 81.0735 46.8302 80.9197 46.7643C80.6546 46.6698 80.3725 46.6312 80.0914 46.651V46.3959H82.7192L86.0611 53.5947L89.3745 46.3959H92.0023V46.651H91.6881C91.5282 46.6352 91.3669 46.6578 91.2177 46.717C91.0686 46.7762 90.936 46.8702 90.8312 46.9911C90.7115 47.3075 90.6627 47.646 90.6884 47.983V53.9915C90.6884 54.5584 90.7455 54.8985 90.8883 55.0402C90.9913 55.1444 91.1168 55.2241 91.2553 55.2732C91.3939 55.3223 91.5419 55.3396 91.6881 55.3236H92.0023V55.5787H88.0606V55.3236H88.4033C88.559 55.3396 88.7162 55.3169 88.8608 55.2575C89.0055 55.1981 89.1329 55.104 89.2316 54.9835C89.3514 54.6671 89.4001 54.3286 89.3745 53.9915V47.8413L85.8041 55.5787H85.5756Z" fill="#FF1616"/>
<path d="M103.885 52.5177H100.314L99.6858 53.9631C99.5519 54.2078 99.4739 54.4787 99.4573 54.7567C99.4583 54.8295 99.4771 54.901 99.5119 54.9652C99.5467 55.0293 99.5965 55.0842 99.6572 55.1251C99.9186 55.2695 100.215 55.3382 100.514 55.3235V55.5786H97.6007V55.3235C97.8683 55.3139 98.127 55.2251 98.3433 55.0685C98.6787 54.6739 98.94 54.2227 99.1145 53.7364L102.371 46.1691H102.628L105.855 53.8214C106.113 54.4449 106.341 54.8417 106.57 55.0118C106.816 55.2204 107.131 55.3315 107.455 55.3235V55.5786H103.799V55.3235C104.057 55.3319 104.313 55.2733 104.542 55.1535C104.601 55.1052 104.65 55.0449 104.685 54.9765C104.719 54.908 104.738 54.8331 104.741 54.7567C104.696 54.4322 104.599 54.1167 104.456 53.8214L103.885 52.5177ZM103.713 52.0075L102.142 48.2947L100.514 52.0075H103.713Z" fill="#FF1616"/>
<path d="M122.251 55.5787H119.766L116.652 51.2707H115.681V53.9632C115.681 54.53 115.738 54.8985 115.853 55.0402C115.956 55.1444 116.081 55.2241 116.22 55.2732C116.358 55.3223 116.506 55.3396 116.652 55.3236H116.995V55.5787H113.025V55.3236H113.368C113.53 55.3413 113.695 55.3167 113.845 55.2521C113.996 55.1875 114.126 55.0851 114.224 54.9552C114.344 54.6387 114.393 54.3002 114.367 53.9632V48.0114C114.367 47.4445 114.31 47.0761 114.167 46.9344C114.064 46.8301 113.939 46.7504 113.8 46.7013C113.662 46.6522 113.514 46.635 113.368 46.6509H113.025V46.3959H116.395C117.134 46.3656 117.874 46.4323 118.595 46.5943C119.053 46.7432 119.459 47.0184 119.766 47.3878C120.097 47.7633 120.27 48.2499 120.251 48.7483C120.264 49.2897 120.07 49.816 119.709 50.222C119.337 50.6472 118.766 50.9306 117.966 51.1006L119.88 53.7364C120.187 54.205 120.574 54.6173 121.023 54.9552C121.398 55.1697 121.818 55.2958 122.251 55.3236V55.5787ZM115.681 50.8456H116.053C116.938 50.8456 117.595 50.6472 118.052 50.2787C118.361 50.0208 118.581 49.6737 118.682 49.2857C118.783 48.8978 118.76 48.4882 118.615 48.1141C118.471 47.7399 118.212 47.4198 117.876 47.1982C117.539 46.9766 117.142 46.8646 116.738 46.8777C116.383 46.882 116.029 46.9199 115.681 46.991V50.8456Z" fill="#FF1616"/>
<path d="M131.505 50.4771L134.904 53.8498C135.328 54.2999 135.819 54.6823 136.361 54.9835C136.724 55.1738 137.123 55.2895 137.532 55.3236V55.5787H133.133V55.3236C133.331 55.3429 133.53 55.3035 133.705 55.2102C133.756 55.175 133.798 55.1286 133.827 55.0744C133.857 55.0203 133.874 54.9601 133.876 54.8985C133.873 54.8015 133.854 54.7056 133.819 54.6151C133.69 54.4428 133.547 54.2816 133.39 54.1332L130.191 50.9873V53.9632C130.174 54.268 130.203 54.5737 130.277 54.8701C130.34 54.9994 130.439 55.1078 130.563 55.1819C130.76 55.2725 130.974 55.3208 131.191 55.3236H131.505V55.5787H127.564V55.3236H127.878C128.03 55.3342 128.183 55.3118 128.326 55.258C128.469 55.2042 128.599 55.1202 128.706 55.0118C128.853 54.6827 128.912 54.3215 128.877 53.9632V48.0114C128.892 47.6972 128.863 47.3825 128.792 47.0761C128.72 46.961 128.622 46.864 128.506 46.7927C128.314 46.6894 128.096 46.6404 127.878 46.651H127.564V46.3959H131.505V46.651H131.191C130.973 46.6404 130.755 46.6894 130.563 46.7927C130.495 46.8274 130.434 46.8755 130.385 46.9339C130.336 46.9923 130.299 47.06 130.277 47.1328C130.202 47.4194 130.174 47.7159 130.191 48.0114V50.8172L131.134 49.967C132.476 48.7483 133.305 47.9263 133.59 47.5012C133.693 47.3602 133.752 47.193 133.762 47.0194C133.749 46.9195 133.697 46.8283 133.619 46.7643C133.476 46.6698 133.304 46.6296 133.133 46.651H132.933V46.3959H136.332V46.651L135.79 46.7076C135.579 46.7894 135.378 46.894 135.19 47.0194C134.87 47.2123 134.573 47.4405 134.304 47.6996C134.19 47.7846 133.733 48.2381 132.905 49.0884L131.505 50.4771Z" fill="#FF1616"/>
<path d="M145.53 46.8777V50.5338H147.586C148.101 50.5338 148.472 50.4488 148.643 50.2787C148.912 49.9848 149.056 49.5986 149.043 49.2017H149.3V52.376H149.043C149.01 52.0858 148.943 51.8005 148.843 51.5258C148.756 51.3617 148.615 51.2318 148.443 51.1573C148.17 51.0548 147.879 51.0066 147.586 51.0156H145.53V54.0482C145.52 54.2952 145.539 54.5426 145.587 54.7851C145.638 54.8731 145.706 54.9502 145.787 55.0118C145.951 55.0705 146.128 55.0899 146.301 55.0685H147.872C148.255 55.0818 148.638 55.0533 149.015 54.9835C149.274 54.8971 149.508 54.7514 149.7 54.5584C150.052 54.1748 150.35 53.7458 150.586 53.283H150.843L150.043 55.5787H142.902V55.3236H143.245C143.453 55.3203 143.657 55.2719 143.845 55.1819C143.985 55.1065 144.095 54.9868 144.159 54.8418C144.233 54.5552 144.262 54.2587 144.245 53.9632V47.983C144.245 47.4162 144.159 47.0477 144.045 46.906C143.937 46.81 143.81 46.7377 143.672 46.6938C143.534 46.6498 143.389 46.6352 143.245 46.651H142.902V46.3959H150.043L150.157 48.4082H149.871C149.828 48.0614 149.722 47.7253 149.557 47.4162C149.442 47.2185 149.26 47.0678 149.043 46.9911C148.727 46.905 148.4 46.8668 148.072 46.8777H145.53Z" fill="#FF1616"/>
<path d="M164.467 46.3959L164.553 48.5499H164.296C164.271 48.2676 164.203 47.9906 164.096 47.7279C163.975 47.4805 163.774 47.2807 163.525 47.1611C163.244 47.0135 162.928 46.9449 162.611 46.9627H161.297V53.9915C161.297 54.5584 161.354 54.8985 161.497 55.0402C161.6 55.1444 161.725 55.2241 161.864 55.2732C162.002 55.3223 162.15 55.3396 162.296 55.3236H162.611V55.5787H158.669V55.3236H159.012C159.167 55.3371 159.324 55.3133 159.468 55.2541C159.612 55.1949 159.74 55.102 159.84 54.9835C159.96 54.6671 160.008 54.3286 159.983 53.9915V46.9627H158.869C158.562 46.9492 158.254 46.9778 157.955 47.0477C157.705 47.1494 157.494 47.3283 157.355 47.5579C157.158 47.8524 157.049 48.1964 157.041 48.5499H156.784L156.898 46.3959H164.467Z" fill="#FF1616"/>
<path d="M174.407 55.3236V55.5787H170.437V55.3236H170.78C170.932 55.3342 171.085 55.3118 171.228 55.258C171.371 55.2042 171.501 55.1202 171.608 55.0118C171.755 54.6827 171.814 54.3215 171.779 53.9632V48.0114C171.797 47.7065 171.768 47.4008 171.694 47.1044C171.631 46.9751 171.532 46.8668 171.408 46.7927C171.216 46.6894 170.998 46.6404 170.78 46.651H170.437V46.3959H174.407V46.651H174.093C173.94 46.634 173.785 46.6534 173.641 46.7077C173.497 46.7619 173.368 46.8493 173.265 46.9627C173.151 47.1044 173.093 47.4729 173.093 48.0114V53.9632C173.076 54.268 173.105 54.5737 173.179 54.8701C173.242 54.9994 173.341 55.1078 173.465 55.1819C173.662 55.2725 173.876 55.3208 174.093 55.3236H174.407Z" fill="#FF1616"/>
<path d="M179.777 46.3959H182.291L187.946 53.283V47.983C187.946 47.4162 187.889 47.0761 187.746 46.9344C187.645 46.8283 187.519 46.7474 187.38 46.6982C187.242 46.649 187.093 46.6328 186.947 46.651H186.632V46.3959H189.86V46.651H189.546C189.39 46.6323 189.232 46.6537 189.087 46.7133C188.942 46.7729 188.814 46.8685 188.717 46.9911C188.603 47.1328 188.546 47.4729 188.546 47.983V55.7204H188.318L182.205 48.3231V53.9915C182.205 54.5584 182.262 54.8985 182.376 55.0402C182.482 55.1412 182.608 55.2188 182.745 55.2676C182.883 55.3165 183.03 55.3356 183.176 55.3236H183.519V55.5787H180.291V55.3236H180.606C180.761 55.3423 180.92 55.3208 181.065 55.2612C181.21 55.2017 181.337 55.106 181.434 54.9835C181.548 54.8418 181.605 54.5017 181.605 53.9915V47.5862C181.421 47.3634 181.21 47.1635 180.977 46.9911C180.795 46.8636 180.592 46.7677 180.377 46.7076C180.182 46.6549 179.979 46.6357 179.777 46.651V46.3959Z" fill="#FF1616"/>
<path d="M203.856 46.1691L204.085 49.0883H203.856C203.67 48.4771 203.348 47.9152 202.913 47.4444C202.63 47.1743 202.293 46.9645 201.925 46.8281C201.557 46.6916 201.164 46.6313 200.771 46.6509C200.24 46.6281 199.713 46.7445 199.241 46.9883C198.77 47.2321 198.372 47.5947 198.086 48.0396C197.559 48.8802 197.291 49.8556 197.315 50.8455C197.303 51.6674 197.479 52.4814 197.829 53.2262C198.101 53.88 198.57 54.4343 199.172 54.8134C199.682 55.1432 200.277 55.3203 200.885 55.3235C201.222 55.328 201.558 55.2899 201.885 55.2101C202.205 55.1141 202.511 54.981 202.799 54.8134V52.1776C202.83 51.8706 202.791 51.5607 202.685 51.2706C202.621 51.1256 202.511 51.0059 202.371 50.9305C202.116 50.8358 201.843 50.7971 201.571 50.8171V50.5621H205.17V50.8171H204.999C204.852 50.7982 204.703 50.8231 204.571 50.8888C204.438 50.9544 204.329 51.0578 204.256 51.1856C204.139 51.5027 204.09 51.8406 204.113 52.1776V54.9834C203.626 55.2514 203.108 55.4608 202.571 55.6069C202.018 55.7337 201.453 55.8002 200.885 55.8053C199.086 55.8053 197.715 55.2101 196.801 54.0765C196.103 53.252 195.728 52.2055 195.744 51.1289C195.743 50.3164 195.95 49.517 196.344 48.8049C196.769 47.9553 197.434 47.2464 198.258 46.7642C198.988 46.3522 199.817 46.1463 200.657 46.1691C200.964 46.1665 201.27 46.195 201.571 46.2541C201.971 46.3441 202.363 46.4673 202.742 46.6225L203.256 46.7642C203.344 46.7571 203.426 46.7165 203.485 46.6509C203.553 46.4988 203.592 46.3353 203.599 46.1691H203.856Z" fill="#FF1616"/>
<path d="M227.049 46.3958L227.306 49.2867H227.049C226.878 48.6757 226.565 48.1129 226.135 47.6428C225.788 47.3465 225.382 47.1256 224.943 46.9942C224.505 46.8628 224.044 46.8239 223.589 46.88C223.134 46.936 222.697 47.0858 222.304 47.3197C221.911 47.5535 221.572 47.8664 221.308 48.238C220.781 49.0786 220.513 50.054 220.537 51.0439C220.527 51.8747 220.703 52.6973 221.051 53.4529C221.339 54.0969 221.804 54.647 222.394 55.0401C222.904 55.3699 223.499 55.547 224.107 55.5503C224.436 55.5469 224.763 55.4992 225.079 55.4085C225.406 55.3229 225.723 55.1992 226.021 55.0401V52.376C226.034 52.0695 225.995 51.763 225.907 51.469C225.831 51.3232 225.711 51.2044 225.564 51.1289C225.314 51.0582 225.053 51.0295 224.793 51.0439V50.7605H228.392V51.0439H228.22C228.077 51.029 227.933 51.0527 227.802 51.1126C227.671 51.1725 227.559 51.2662 227.478 51.384C227.363 51.7016 227.315 52.0391 227.335 52.376V55.1818C226.848 55.4498 226.33 55.6592 225.793 55.8053C225.233 55.9476 224.656 56.0143 224.079 56.0037C222.308 56.0037 220.937 55.4369 220.023 54.3032C219.323 53.4688 218.948 52.4128 218.966 51.3273C218.983 50.4491 219.222 49.5892 219.661 48.8266C220.1 48.0639 220.726 47.423 221.48 46.9626C222.216 46.5695 223.043 46.3741 223.879 46.3958C224.186 46.3932 224.492 46.4217 224.793 46.4808C225.193 46.5584 225.585 46.6722 225.964 46.8209C226.124 46.9011 226.299 46.9493 226.478 46.9626C226.523 46.9651 226.568 46.956 226.608 46.9361C226.648 46.9162 226.682 46.8863 226.707 46.8493C226.776 46.7076 226.815 46.5532 226.821 46.3958H227.049Z" fill="#FF1616"/>
<path d="M243.188 55.7771H240.703L237.561 51.4974H236.59V54.1616C236.59 54.7284 236.647 55.0968 236.789 55.2386C236.887 55.344 237.006 55.4267 237.14 55.4806C237.273 55.5345 237.417 55.5583 237.561 55.5503H237.932V55.7771H233.962V55.5503H234.304C234.466 55.5658 234.629 55.537 234.775 55.467C234.921 55.397 235.045 55.2886 235.133 55.1535C235.247 55.0118 235.276 54.7001 235.276 54.1616V48.2097C235.276 47.6429 235.218 47.2745 235.104 47.1327C234.999 47.0317 234.873 46.9542 234.735 46.9053C234.597 46.8564 234.45 46.8373 234.304 46.8493H233.962V46.5943H237.332C238.063 46.5699 238.793 46.6463 239.503 46.821C239.968 46.9587 240.383 47.224 240.703 47.5862C241.021 47.9795 241.193 48.4703 241.188 48.975C241.194 49.5121 240.989 50.0305 240.617 50.4204C240.159 50.898 239.558 51.216 238.903 51.3274L240.817 53.9632C241.114 54.4221 241.492 54.8251 241.931 55.1535C242.315 55.3776 242.744 55.5132 243.188 55.5503V55.7771ZM236.59 51.0723H236.989C237.701 51.114 238.407 50.9141 238.989 50.5054C239.195 50.3245 239.361 50.1021 239.474 49.8529C239.587 49.6037 239.646 49.3334 239.646 49.06C239.66 48.7993 239.619 48.5385 239.526 48.2945C239.432 48.0504 239.288 47.8284 239.103 47.6429C238.718 47.2829 238.204 47.0892 237.675 47.1044C237.31 47.1202 236.946 47.1676 236.59 47.2461V51.0723Z" fill="#FF1616"/>
<path d="M253.299 46.3959C253.889 46.3941 254.473 46.5141 255.014 46.7483C255.555 46.9825 256.041 47.3258 256.441 47.7563C256.876 48.2029 257.216 48.7314 257.442 49.3107C257.668 49.89 257.774 50.5083 257.755 51.129C257.776 51.7695 257.668 52.4077 257.438 53.0062C257.207 53.6048 256.859 54.1518 256.412 54.6151C256.001 55.05 255.504 55.3971 254.953 55.6353C254.401 55.8735 253.807 55.9977 253.205 56.0003C252.604 56.003 252.008 55.884 251.455 55.6507C250.901 55.4174 250.401 55.0747 249.986 54.6434C249.1 53.7648 248.672 52.5745 248.672 51.1574C248.654 50.4896 248.78 49.8258 249.041 49.21C249.302 48.5943 249.692 48.0408 250.186 47.5863C251.027 46.8018 252.145 46.3746 253.299 46.3959ZM253.185 46.8777C252.803 46.8644 252.424 46.9394 252.077 47.0969C251.73 47.2543 251.425 47.4898 251.185 47.7847C250.557 48.5499 250.243 49.6552 250.243 51.129C250.243 52.6028 250.557 53.7932 251.214 54.5867C251.443 54.888 251.741 55.1303 252.084 55.2931C252.427 55.4558 252.805 55.5344 253.185 55.522C253.598 55.5309 254.007 55.4431 254.379 55.2659C254.751 55.0886 255.076 54.8268 255.327 54.5017C255.898 53.8498 256.184 52.7728 256.184 51.3274C256.184 49.882 255.87 48.5782 255.241 47.813C254.999 47.505 254.686 47.2592 254.328 47.0965C253.97 46.9337 253.578 46.8587 253.185 46.8777Z" fill="#FF1616"/>
<path d="M270.123 46.8493V46.5942H273.379V46.8493H273.036C272.87 46.8427 272.704 46.8815 272.558 46.9614C272.412 47.0414 272.291 47.1594 272.208 47.3028C272.094 47.4445 272.065 47.7563 272.065 48.2664V52.0076C272.084 52.736 271.988 53.4629 271.779 54.1615C271.574 54.7037 271.192 55.1624 270.694 55.4653C270.032 55.8592 269.266 56.0468 268.495 56.0038C267.466 56.0038 266.724 55.8337 266.181 55.4936C265.674 55.1438 265.286 54.6497 265.067 54.0765C264.924 53.6797 264.867 52.9145 264.867 51.8092V48.2097C264.867 47.6712 264.781 47.2744 264.61 47.1044C264.512 47.0114 264.395 46.9404 264.267 46.8964C264.139 46.8524 264.002 46.8363 263.867 46.8493H263.496V46.5942H267.524V46.8493H267.152C266.994 46.8338 266.834 46.8597 266.689 46.9243C266.543 46.9889 266.418 47.0901 266.324 47.2178C266.21 47.3595 266.153 47.6996 266.153 48.2097V52.2343C266.167 52.6423 266.206 53.0492 266.267 53.453C266.298 53.8329 266.416 54.2009 266.61 54.53C266.812 54.8039 267.076 55.0271 267.381 55.1819C267.753 55.365 268.165 55.4527 268.58 55.4369C269.148 55.4404 269.707 55.3041 270.208 55.0402C270.635 54.8137 270.976 54.4556 271.18 54.0198C271.351 53.6231 271.437 52.9145 271.437 51.9509V48.2097C271.437 47.6429 271.38 47.3028 271.237 47.1327C271.138 47.0307 271.018 46.9523 270.884 46.9032C270.75 46.8541 270.607 46.8357 270.466 46.8493H270.123Z" fill="#FF1616"/>
<path d="M281.548 51.4974V54.1616C281.548 54.7284 281.605 55.0969 281.748 55.2386C281.845 55.344 281.965 55.4267 282.098 55.4806C282.232 55.5346 282.375 55.5584 282.519 55.5503H282.891V55.7771H278.92V55.5503H279.263C279.424 55.5627 279.586 55.5326 279.731 55.4629C279.877 55.3932 280.001 55.2864 280.091 55.1535C280.215 54.8381 280.264 54.4987 280.234 54.1616V48.2098C280.234 47.6429 280.177 47.2745 280.063 47.1328C279.957 47.0332 279.831 46.9566 279.693 46.9078C279.555 46.859 279.409 46.8391 279.263 46.8493H278.92V46.5943H282.319C282.977 46.5715 283.633 46.6577 284.262 46.8493C284.741 47.0181 285.165 47.3118 285.49 47.6996C285.811 48.1136 285.982 48.6228 285.975 49.145C285.986 49.4821 285.926 49.8178 285.798 50.1302C285.67 50.4427 285.478 50.725 285.233 50.9589C284.719 51.4407 284.005 51.6675 283.091 51.6675H282.376L281.548 51.4974ZM281.548 51.1006L282.176 51.214H282.662C282.896 51.2125 283.126 51.1612 283.338 51.0633C283.55 50.9655 283.739 50.8236 283.89 50.6472C284.065 50.4616 284.201 50.2431 284.289 50.0045C284.378 49.766 284.417 49.5123 284.404 49.2584C284.403 48.8694 284.325 48.4844 284.176 48.1247C284.025 47.8017 283.775 47.5341 283.462 47.3595C283.149 47.1829 282.793 47.0947 282.434 47.1044C282.134 47.1208 281.837 47.1683 281.548 47.2461V51.1006Z" fill="#FF1616"/>
<path d="M29.2488 13.4908C33.0032 13.4908 36.0468 10.4708 36.0468 6.74539C36.0468 3.02002 33.0032 0 29.2488 0C25.4943 0 22.4507 3.02002 22.4507 6.74539C22.4507 10.4708 25.4943 13.4908 29.2488 13.4908Z" fill="#FF1616"/>
<path d="M6.65524 26.7265C10.3308 26.7265 13.3105 23.77 13.3105 20.1228C13.3105 16.4757 10.3308 13.5192 6.65524 13.5192C2.97965 13.5192 0 16.4757 0 20.1228C0 23.77 2.97965 26.7265 6.65524 26.7265Z" fill="#FF1616"/>
<path d="M6.65524 49.0033C10.3308 49.0033 13.3105 46.0467 13.3105 42.3996C13.3105 38.7525 10.3308 35.7959 6.65524 35.7959C2.97965 35.7959 0 38.7525 0 42.3996C0 46.0467 2.97965 49.0033 6.65524 49.0033Z" fill="#FF1616"/>
<path d="M29.2488 60C32.9244 60 35.904 57.0434 35.904 53.3963C35.904 49.7492 32.9244 46.7926 29.2488 46.7926C25.5732 46.7926 22.5935 49.7492 22.5935 53.3963C22.5935 57.0434 25.5732 60 29.2488 60Z" fill="#FF1616"/>
<path d="M49.7858 49.0033C53.4614 49.0033 56.441 46.0467 56.441 42.3996C56.441 38.7525 53.4614 35.7959 49.7858 35.7959C46.1102 35.7959 43.1305 38.7525 43.1305 42.3996C43.1305 46.0467 46.1102 49.0033 49.7858 49.0033Z" fill="#FF1616"/>
<path d="M49.7858 26.7265C53.4614 26.7265 56.441 23.77 56.441 20.1228C56.441 16.4757 53.4614 13.5192 49.7858 13.5192C46.1102 13.5192 43.1305 16.4757 43.1305 20.1228C43.1305 23.77 46.1102 26.7265 49.7858 26.7265Z" fill="#FF1616"/>
<path d="M24.5073 27.435C26.5423 27.435 28.192 25.7981 28.192 23.7789C28.192 21.7597 26.5423 20.1228 24.5073 20.1228C22.4723 20.1228 20.8226 21.7597 20.8226 23.7789C20.8226 25.7981 22.4723 27.435 24.5073 27.435Z" fill="#38B6FF"/>
<path d="M20.8226 34.7473C22.8576 34.7473 24.5073 33.1104 24.5073 31.0912C24.5073 29.072 22.8576 27.4351 20.8226 27.4351C18.7876 27.4351 17.138 29.072 17.138 31.0912C17.138 33.1104 18.7876 34.7473 20.8226 34.7473Z" fill="#38B6FF"/>
<path d="M24.5073 41.8895C26.5423 41.8895 28.192 40.2526 28.192 38.2334C28.192 36.2142 26.5423 34.5773 24.5073 34.5773C22.4723 34.5773 20.8226 36.2142 20.8226 38.2334C20.8226 40.2526 22.4723 41.8895 24.5073 41.8895Z" fill="#38B6FF"/>
<path d="M33.9332 41.8895C35.9681 41.8895 37.6178 40.2526 37.6178 38.2334C37.6178 36.2142 35.9681 34.5773 33.9332 34.5773C31.8982 34.5773 30.2485 36.2142 30.2485 38.2334C30.2485 40.2526 31.8982 41.8895 33.9332 41.8895Z" fill="#38B6FF"/>
<path d="M37.6178 34.7473C39.6528 34.7473 41.3025 33.1104 41.3025 31.0912C41.3025 29.072 39.6528 27.4351 37.6178 27.4351C35.5828 27.4351 33.9332 29.072 33.9332 31.0912C33.9332 33.1104 35.5828 34.7473 37.6178 34.7473Z" fill="#38B6FF"/>
<path d="M33.9332 27.435C35.9681 27.435 37.6178 25.7981 37.6178 23.7789C37.6178 21.7597 35.9681 20.1228 33.9332 20.1228C31.8982 20.1228 30.2485 21.7597 30.2485 23.7789C30.2485 25.7981 31.8982 27.435 33.9332 27.435Z" fill="#38B6FF"/>
</g>
<defs>
<clipPath id="clip0_152_493">
<rect width="300" height="60" fill="white"/>
</clipPath>
</defs>
</svg>
