<svg width="240" height="48" viewBox="0 0 240 48" fill="none" xmlns="http://www.w3.org/2000/svg">
<g clip-path="url(#clip0_18_6391)">
<path d="M64.4615 21.7893C66.678 22.2881 68.2318 22.9003 69.123 23.6486C69.7391 24.12 70.2341 24.7294 70.5677 25.4268C70.9013 26.1243 71.0639 26.8901 71.0425 27.6618C71.0425 29.4076 70.3341 30.8361 68.9174 31.9698C67.5006 33.1034 64.69 34.0331 61.3767 34.0331H49.54V33.3982C50.614 33.3982 51.3452 33.3075 51.7337 33.1034C52.0826 32.9467 52.3654 32.674 52.5335 32.3325C52.6934 32.0151 52.7848 31.2215 52.7848 29.9745V14.9872C52.7848 13.7175 52.6934 12.9466 52.5335 12.6065C52.3654 12.265 52.0826 11.9924 51.7337 11.8356C51.3452 11.6542 50.614 11.5409 49.54 11.5409V10.9287H60.714C63.3875 10.9287 65.2613 11.1554 66.3809 11.6315C67.4448 12.0661 68.358 12.7988 69.0088 13.7402C69.631 14.6163 69.9661 15.6613 69.9685 16.7331C69.967 17.8413 69.533 18.9059 68.7574 19.7033C67.9348 20.5876 66.518 21.2678 64.4615 21.7893ZM58.2004 22.6509V30.9268C58.2004 31.539 58.3604 31.9924 58.6803 32.3099C59.0002 32.6273 59.4572 32.786 60.0742 32.786C60.9576 32.793 61.8291 32.5827 62.6106 32.1738C63.3739 31.7802 63.9963 31.1627 64.3929 30.4053C64.8133 29.6166 65.0256 28.7352 65.0099 27.8432C65.0233 26.8264 64.763 25.8245 64.2558 24.9409C63.7983 24.1184 63.0614 23.4837 62.1764 23.1497C61.2624 22.8096 59.9599 22.6282 58.2004 22.6509ZM58.2004 21.3132C59.8228 21.3132 61.0339 21.1318 61.8108 20.769C62.5364 20.4474 63.149 19.9185 63.5703 19.2499C64.0244 18.4817 64.2464 17.6003 64.2101 16.7104C64.2465 15.8307 64.0327 14.9586 63.5932 14.1937C63.1796 13.5379 62.5735 13.0236 61.8565 12.7199C61.0796 12.3571 59.8685 12.1984 58.2004 12.2211V21.3132Z" fill="#38B6FF"/>
<path d="M85.1642 33.3982V34.0331H72.9849V33.3982H73.7618C74.3227 33.4211 74.8805 33.3042 75.3842 33.0581C75.7085 32.8712 75.9525 32.5727 76.0697 32.2192C76.2068 31.9471 76.2525 31.2442 76.2525 30.0879V14.8739C76.2525 13.6948 76.2068 12.9466 76.0697 12.6519C75.9076 12.3217 75.6434 12.0516 75.3156 11.881C74.8369 11.6337 74.3009 11.5164 73.7618 11.5409H72.9849V10.9287H85.1642V11.5409H84.3873C83.8243 11.5239 83.2662 11.6488 82.7649 11.9036C82.4401 12.0855 82.1896 12.3742 82.0566 12.7199C81.9195 12.992 81.8738 13.7175 81.8738 14.8739V30.0879C81.8738 31.2669 81.9195 31.9924 82.0566 32.3099C82.2285 32.6407 82.5001 32.9101 82.8335 33.0808C83.3182 33.309 83.8512 33.4179 84.3873 33.3982H85.1642Z" fill="#38B6FF"/>
<path d="M110.254 10.3845V18.547H109.614C108.838 16.3023 107.695 14.6245 106.164 13.4681C104.738 12.335 102.964 11.719 101.137 11.7222C99.3774 11.7222 97.9378 12.1984 96.7724 13.1734C95.607 14.1483 94.8072 15.5087 94.3274 17.2546C93.8415 18.9974 93.5955 20.7974 93.5962 22.6056C93.5671 24.5767 93.8367 26.541 94.3959 28.4327C94.9291 30.1105 95.7746 31.3349 96.9324 32.1058C98.1806 32.9135 99.6472 33.3247 101.137 33.2848C101.713 33.2782 102.286 33.2175 102.851 33.1034C103.466 32.9791 104.07 32.8047 104.656 32.582V27.7752C104.656 26.8682 104.61 26.2787 104.473 26.0066C104.29 25.6952 104.02 25.4431 103.696 25.2811C103.25 25.0596 102.755 24.9506 102.257 24.9636H101.662V24.3288H112.973V24.9636C112.128 25.0316 111.534 25.145 111.191 25.3264C110.834 25.5082 110.557 25.8153 110.414 26.188C110.3 26.4147 110.254 26.9362 110.254 27.7752V32.582C108.758 33.243 107.196 33.7446 105.593 34.0784C103.947 34.4194 102.27 34.5866 100.588 34.5772C98.3719 34.5772 96.5439 34.2825 95.0815 33.693C93.674 33.1195 92.3698 32.3232 91.2197 31.3349C90.1429 30.4131 89.2513 29.2976 88.5919 28.0472C87.7787 26.4129 87.3713 24.6093 87.4036 22.787C87.4036 19.3179 88.6376 16.3703 91.0826 13.9669C93.5276 11.5635 96.6581 10.3618 100.383 10.3618C101.433 10.359 102.482 10.4577 103.513 10.6566C104.349 10.8442 105.167 11.1021 105.958 11.4275C107.101 11.8583 107.764 12.0624 107.969 12.0624C108.298 12.0586 108.614 11.9379 108.86 11.7222C109.135 11.4728 109.386 11.042 109.614 10.3845H110.254Z" fill="#38B6FF"/>
<path d="M122.594 34.0331V33.3982H123.37C124.056 33.3982 124.581 33.3075 124.924 33.0808C125.284 32.895 125.567 32.5902 125.724 32.2192C125.838 31.9924 125.884 31.2669 125.884 30.0879V14.8739C125.884 13.6948 125.815 12.9466 125.701 12.6519C125.529 12.321 125.258 12.0516 124.924 11.881C124.448 11.6284 123.91 11.5107 123.37 11.5409H122.594V10.9287H133.036C135.824 10.9287 138.063 11.2914 139.754 12.0397C141.738 12.8874 143.39 14.3515 144.462 16.2116C145.365 17.8571 145.906 19.6743 146.047 21.5428C146.189 23.4113 145.929 25.2884 145.284 27.0496C144.828 28.2933 144.138 29.4398 143.25 30.428C142.424 31.316 141.44 32.046 140.348 32.582C139.072 33.178 137.718 33.5975 136.327 33.829C135.238 33.9933 134.137 34.0616 133.036 34.0331H122.594ZM131.482 12.2211V30.2692C131.482 31.2215 131.528 31.811 131.619 32.0151C131.709 32.2363 131.881 32.4149 132.099 32.5139C132.509 32.7189 132.966 32.8128 133.425 32.786C135.344 32.786 136.807 32.1285 137.812 30.8361C139.183 29.0827 139.869 26.3618 139.869 22.6736C139.869 19.726 139.412 17.3453 138.475 15.5768C137.721 14.1937 136.761 13.2414 135.595 12.7426C134.773 12.3798 133.402 12.2211 131.482 12.2211Z" fill="#38B6FF"/>
<path d="M156.892 23.4898V29.9745C156.892 31.2215 156.984 32.0151 157.144 32.3325C157.304 32.6849 157.588 32.9671 157.943 33.1261C158.324 33.3075 159.055 33.3982 160.137 33.3982V34.0331H148.209V33.3982C149.283 33.3982 150.014 33.3075 150.403 33.1034C150.746 32.9393 151.027 32.6687 151.202 32.3325C151.362 32.0151 151.431 31.2215 151.431 29.9745V14.9872C151.431 13.7175 151.362 12.9466 151.202 12.6065C151.017 12.2697 150.729 11.9998 150.38 11.8356C149.991 11.6542 149.26 11.5409 148.209 11.5409V10.9287H159.04C161.851 10.9287 163.907 11.1101 165.21 11.4955C166.473 11.8602 167.591 12.6049 168.409 13.6268C169.233 14.6741 169.669 15.9712 169.643 17.2999C169.663 18.0944 169.508 18.8836 169.189 19.6122C168.869 20.3408 168.392 20.991 167.792 21.5172C167.015 22.2201 165.895 22.7643 164.479 23.1044L170.077 30.9268C170.808 31.9546 171.334 32.5895 171.654 32.8314C172.122 33.1825 172.689 33.3806 173.276 33.3982V34.0331H165.941L158.423 23.4898H156.892ZM156.892 12.153V22.2881H157.875C159.474 22.2881 160.663 22.1521 161.462 21.8573C162.241 21.5606 162.894 21.0086 163.313 20.2929C163.77 19.522 163.999 18.547 163.999 17.3226C163.999 15.5768 163.587 14.2617 162.742 13.4228C161.896 12.5838 160.594 12.153 158.743 12.153H156.892Z" fill="#38B6FF"/>
<path d="M186.552 10.5886C190.277 10.4525 193.293 11.5409 195.601 13.8082C197.909 16.0756 199.074 18.9551 199.074 22.4015C199.074 25.3264 198.229 27.9112 196.492 30.1332C194.207 33.0808 190.962 34.5772 186.781 34.5772C182.599 34.5772 179.354 33.1488 177.046 30.3373C175.241 28.1153 174.35 25.4624 174.35 22.4015C174.35 18.9778 175.515 16.1209 177.869 13.8309C180.223 11.5409 183.125 10.4525 186.552 10.5886ZM186.758 11.6769C184.633 11.6769 183.01 12.7652 181.891 14.9192C181 16.6878 180.543 19.2499 180.543 22.5602C180.543 26.5054 181.251 29.4303 182.645 31.3122C183.605 32.6273 184.976 33.2848 186.735 33.2848C187.783 33.3228 188.815 33.029 189.683 32.4459C190.688 31.6977 191.488 30.5413 192.036 28.9542C192.585 27.367 192.882 25.2584 192.882 22.6963C192.882 19.6353 192.585 17.3453 192.014 15.8262C191.442 14.307 190.711 13.2414 189.82 12.6292C188.932 11.9884 187.856 11.6539 186.758 11.6769Z" fill="#38B6FF"/>
<path d="M209.837 23.5805V29.9745C209.837 31.2215 209.928 32.0151 210.066 32.3325C210.243 32.6808 210.532 32.9602 210.888 33.1261C211.3 33.3075 212.008 33.3982 213.059 33.3982V34.0331H201.222V33.3982C202.319 33.3982 203.028 33.3075 203.416 33.1034C203.766 32.9393 204.054 32.6694 204.239 32.3325C204.376 32.0151 204.467 31.2215 204.467 29.9745V14.9872C204.467 13.7175 204.376 12.9466 204.239 12.6065C204.054 12.2697 203.766 11.9998 203.416 11.8356C203.028 11.6542 202.296 11.5409 201.222 11.5409V10.9287H211.391C214.727 10.9287 217.126 11.5182 218.589 12.6972C220.051 13.8762 220.76 15.35 220.76 17.1186C220.795 18.5309 220.298 19.9055 219.366 20.9731C218.429 22.0387 217.126 22.7643 215.481 23.1497C214.362 23.4218 212.488 23.5805 209.837 23.5805ZM209.837 12.2437V22.2428H210.705C212.107 22.2428 213.181 21.8347 213.927 21.0184C214.681 20.1795 215.07 18.9098 215.07 17.1866C215.07 15.4634 214.681 14.2163 213.927 13.4228C213.173 12.6292 212.054 12.2211 210.545 12.2211L209.837 12.2437Z" fill="#38B6FF"/>
<path d="M238.355 10.3845L238.56 18.0935H237.852C237.509 16.1663 236.71 14.6018 235.407 13.4228C234.105 12.2437 232.688 11.6769 231.18 11.6769C230.014 11.6769 229.077 11.9717 228.415 12.6065C228.097 12.8654 227.84 13.1905 227.662 13.5588C227.484 13.9271 227.39 14.3296 227.386 14.7378C227.371 15.2171 227.499 15.6901 227.752 16.0983C228.17 16.7302 228.715 17.2704 229.352 17.6854C229.877 18.0709 231.134 18.7284 233.076 19.6807C235.795 21.0184 237.646 22.2655 238.583 23.4445C239.513 24.5948 240.014 26.0286 240 27.5031C240 29.4303 239.246 31.1082 237.715 32.4913C236.184 33.8744 234.265 34.5772 231.934 34.5772C231.234 34.584 230.536 34.5079 229.854 34.3505C229.017 34.1508 228.198 33.8776 227.409 33.5343C226.978 33.3351 226.513 33.2197 226.038 33.1942C225.698 33.2086 225.371 33.3274 225.101 33.5343C224.736 33.7952 224.458 34.1584 224.302 34.5772H223.662V25.8479H224.302C224.804 28.2967 225.764 30.1559 227.204 31.4483C228.643 32.7407 230.197 33.3982 231.842 33.3982C233.488 33.3982 234.15 33.0354 234.927 32.3552C235.704 31.675 236.07 30.8588 236.07 29.9292C236.06 29.3695 235.902 28.8222 235.613 28.342C235.282 27.7691 234.829 27.2741 234.287 26.8909C233.693 26.4147 232.642 25.8252 231.134 25.077C229.009 24.0567 227.478 23.1724 226.564 22.4469C225.686 21.7852 224.955 20.9518 224.416 19.9981C223.911 19.0972 223.651 18.0814 223.662 17.0506C223.649 16.1648 223.825 15.2864 224.18 14.4734C224.534 13.6604 225.059 12.9313 225.718 12.3344C227.089 11.042 228.803 10.3845 230.883 10.3845C231.622 10.3828 232.36 10.4743 233.076 10.6566C233.756 10.8468 234.414 11.1051 235.041 11.4275C235.818 11.7903 236.344 11.9717 236.664 11.9717C236.794 11.9779 236.925 11.9569 237.047 11.9101C237.169 11.8632 237.28 11.7915 237.372 11.6996C237.532 11.5182 237.692 11.0874 237.852 10.3845H238.355Z" fill="#38B6FF"/>
<path d="M68.4606 44.4629L65.6042 38.273V43.1932C65.6042 43.6467 65.6499 43.9187 65.7413 44.0321C65.8237 44.1155 65.9241 44.1793 66.0349 44.2186C66.1458 44.2578 66.2642 44.2716 66.3812 44.2589H66.6554V44.4629H64.0732V44.2589H64.3246C64.4493 44.2738 64.5758 44.2566 64.6919 44.209C64.8079 44.1613 64.9097 44.0848 64.9873 43.9868C65.0787 43.8734 65.1244 43.6013 65.1244 43.1932V38.3864C65.136 38.1468 65.0971 37.9074 65.0101 37.6835C64.957 37.5614 64.8589 37.4641 64.7359 37.4114C64.5238 37.3358 64.2981 37.305 64.0732 37.3207V37.1167H66.1755L68.849 42.8758L71.4997 37.1167H73.602V37.3207H73.3506C73.2227 37.3081 73.0936 37.3262 72.9743 37.3736C72.855 37.4209 72.7489 37.4961 72.6651 37.5928C72.5693 37.8459 72.5303 38.1168 72.5508 38.3864V43.1932C72.5508 43.6467 72.5965 43.9187 72.7108 44.0321C72.7932 44.1155 72.8935 44.1793 73.0044 44.2186C73.1152 44.2578 73.2336 44.2716 73.3506 44.2589H73.602V44.4629H70.4486V44.2589H70.7228C70.8473 44.2717 70.9731 44.2535 71.0888 44.206C71.2045 44.1585 71.3064 44.0831 71.3854 43.9868C71.4812 43.7336 71.5202 43.4628 71.4997 43.1932V38.273L68.6434 44.4629H68.4606Z" fill="#FF1616"/>
<path d="M83.1077 42.0142H80.2514L79.7487 43.1705C79.6416 43.3663 79.5791 43.583 79.5659 43.8054C79.5667 43.8637 79.5817 43.9209 79.6095 43.9722C79.6374 44.0235 79.6772 44.0674 79.7258 44.1002C79.9349 44.2156 80.1724 44.2706 80.4113 44.2589V44.4629H78.0806V44.2589C78.2947 44.2512 78.5016 44.1801 78.6747 44.0548C78.943 43.7391 79.152 43.3782 79.2916 42.9892L81.8966 36.9353H82.1023L84.6844 43.0572C84.89 43.556 85.0729 43.8734 85.2557 44.0095C85.4527 44.1764 85.705 44.2652 85.964 44.2589V44.4629H83.0391V44.2589C83.2457 44.2656 83.4505 44.2187 83.6333 44.1228C83.6811 44.0842 83.7201 44.036 83.7477 43.9812C83.7753 43.9265 83.7908 43.8666 83.7932 43.8054C83.7564 43.5458 83.6794 43.2934 83.5647 43.0572L83.1077 42.0142ZM82.9706 41.6061L81.7138 38.6358L80.4113 41.6061H82.9706Z" fill="#FF1616"/>
<path d="M97.8007 44.4629H95.8127L93.3219 41.0165H92.545V43.1705C92.545 43.624 92.5907 43.9188 92.6821 44.0321C92.7645 44.1155 92.8649 44.1793 92.9757 44.2186C93.0866 44.2578 93.205 44.2716 93.3219 44.2589H93.5962V44.4629H90.4199V44.2589H90.6941C90.8243 44.2731 90.9561 44.2533 91.0763 44.2016C91.1965 44.15 91.301 44.0681 91.3796 43.9641C91.4754 43.711 91.5144 43.4402 91.4939 43.1705V38.4091C91.4939 37.9556 91.4482 37.6608 91.3339 37.5475C91.2516 37.4641 91.1512 37.4003 91.0403 37.361C90.9295 37.3218 90.8111 37.308 90.6941 37.3207H90.4199V37.1167H93.1163C93.7073 37.0925 94.2989 37.1459 94.8758 37.2754C95.2425 37.3946 95.5674 37.6147 95.8127 37.9103C96.0773 38.2106 96.2162 38.5999 96.2011 38.9986C96.2109 39.4318 96.0559 39.8528 95.767 40.1776C95.4699 40.5177 95.0129 40.7445 94.3731 40.8805L95.9041 42.9891C96.1498 43.364 96.459 43.6939 96.8181 43.9641C97.1185 44.1358 97.4547 44.2366 97.8007 44.2589V44.4629ZM92.545 40.6764H92.8421C93.5505 40.6764 94.076 40.5177 94.4416 40.223C94.6888 40.0166 94.8651 39.7389 94.9459 39.4286C95.0266 39.1182 95.0079 38.7906 94.8922 38.4912C94.7766 38.1919 94.5698 37.9358 94.3007 37.7585C94.0315 37.5813 93.7134 37.4916 93.3905 37.5021C93.1064 37.5056 92.8233 37.5359 92.545 37.5928V40.6764Z" fill="#FF1616"/>
<path d="M105.204 40.3817L107.923 43.0798C108.262 43.4399 108.656 43.7458 109.089 43.9868C109.379 44.139 109.698 44.2316 110.026 44.2589V44.4629H106.507V44.2589C106.665 44.2743 106.824 44.2427 106.964 44.1682C107.004 44.14 107.038 44.1028 107.062 44.0595C107.086 44.0162 107.099 43.968 107.101 43.9187C107.099 43.8411 107.083 43.7644 107.055 43.692C106.952 43.5542 106.837 43.4253 106.712 43.3066L104.153 40.7898V43.1705C104.139 43.4144 104.162 43.659 104.222 43.8961C104.272 43.9995 104.351 44.0862 104.45 44.1455C104.608 44.218 104.779 44.2566 104.953 44.2589H105.204V44.4629H102.051V44.2589H102.302C102.424 44.2673 102.547 44.2494 102.661 44.2064C102.775 44.1633 102.879 44.0961 102.965 44.0094C103.082 43.7461 103.13 43.4572 103.102 43.1705V38.4091C103.114 38.1577 103.091 37.9059 103.033 37.6608C102.976 37.5688 102.898 37.4912 102.805 37.4341C102.651 37.3515 102.477 37.3123 102.302 37.3207H102.051V37.1167H105.204V37.3207H104.953C104.778 37.3123 104.604 37.3515 104.45 37.4341C104.396 37.4619 104.347 37.5003 104.308 37.5471C104.269 37.5938 104.239 37.6479 104.222 37.7062C104.162 37.9355 104.139 38.1727 104.153 38.4091V40.6537L104.907 39.9735C105.981 38.9986 106.644 38.341 106.872 38.0009C106.954 37.8881 107.002 37.7544 107.009 37.6155C106.999 37.5355 106.958 37.4626 106.895 37.4114C106.781 37.3358 106.643 37.3036 106.507 37.3207H106.347V37.1167H109.066V37.3207L108.632 37.3661C108.463 37.4315 108.302 37.5151 108.152 37.6155C107.896 37.7698 107.658 37.9524 107.444 38.1597C107.352 38.2277 106.987 38.5905 106.324 39.2707L105.204 40.3817Z" fill="#FF1616"/>
<path d="M116.424 37.5021V40.427H118.069C118.48 40.427 118.777 40.359 118.915 40.223C119.13 39.9878 119.244 39.6789 119.234 39.3614H119.44V41.9008H119.234C119.208 41.6686 119.154 41.4404 119.074 41.2206C119.004 41.0893 118.892 40.9854 118.755 40.9258C118.536 40.8438 118.303 40.8053 118.069 40.8125H116.424V43.2385C116.416 43.4361 116.431 43.634 116.469 43.8281C116.51 43.8984 116.565 43.9601 116.629 44.0094C116.761 44.0564 116.902 44.0719 117.041 44.0548H118.298C118.604 44.0654 118.91 44.0426 119.212 43.9868C119.419 43.9176 119.607 43.8011 119.76 43.6467C120.041 43.3398 120.28 42.9966 120.468 42.6263H120.674L120.034 44.4629H114.322V44.2589H114.596C114.762 44.2562 114.926 44.2175 115.076 44.1455C115.188 44.0852 115.276 43.9894 115.327 43.8734C115.387 43.6441 115.41 43.4069 115.396 43.1705V38.3864C115.396 37.9329 115.327 37.6382 115.236 37.5248C115.149 37.448 115.048 37.3901 114.938 37.355C114.827 37.3198 114.711 37.3081 114.596 37.3207H114.322V37.1167H120.034L120.126 38.7265H119.897C119.862 38.4491 119.777 38.1802 119.646 37.9329C119.554 37.7748 119.408 37.6542 119.234 37.5928C118.982 37.5239 118.72 37.4934 118.457 37.5021H116.424Z" fill="#FF1616"/>
<path d="M131.574 37.1167L131.642 38.8399H131.437C131.416 38.614 131.363 38.3924 131.277 38.1823C131.18 37.9844 131.019 37.8246 130.82 37.7289C130.595 37.6108 130.342 37.5559 130.089 37.5701H129.037V43.1932C129.037 43.6467 129.083 43.9187 129.197 44.0321C129.28 44.1155 129.38 44.1793 129.491 44.2186C129.602 44.2578 129.72 44.2716 129.837 44.2589H130.089V44.4629H126.935V44.2589H127.209C127.334 44.2697 127.459 44.2506 127.574 44.2032C127.69 44.1559 127.792 44.0816 127.872 43.9868C127.968 43.7336 128.007 43.4628 127.986 43.1932V37.5701H127.095C126.849 37.5593 126.603 37.5822 126.364 37.6382C126.164 37.7195 125.996 37.8626 125.884 38.0463C125.726 38.2819 125.639 38.5571 125.633 38.8399H125.427L125.518 37.1167H131.574Z" fill="#FF1616"/>
<path d="M139.526 44.2589V44.4629H136.35V44.2589H136.624C136.746 44.2673 136.868 44.2494 136.983 44.2064C137.097 44.1633 137.201 44.0961 137.286 44.0094C137.404 43.7461 137.451 43.4572 137.424 43.1705V38.4091C137.437 38.1652 137.414 37.9206 137.355 37.6835C137.305 37.5801 137.226 37.4934 137.127 37.4341C136.973 37.3515 136.799 37.3123 136.624 37.3207H136.35V37.1167H139.526V37.3207H139.274C139.152 37.3072 139.028 37.3227 138.913 37.3661C138.798 37.4095 138.694 37.4794 138.612 37.5701C138.52 37.6835 138.475 37.9783 138.475 38.4091V43.1705C138.461 43.4144 138.484 43.659 138.543 43.8961C138.593 43.9995 138.673 44.0862 138.772 44.1455C138.929 44.218 139.101 44.2566 139.274 44.2589H139.526Z" fill="#FF1616"/>
<path d="M143.822 37.1167H145.833L150.357 42.6263V38.3864C150.357 37.9329 150.311 37.6608 150.197 37.5475C150.116 37.4626 150.016 37.3979 149.904 37.3585C149.793 37.3192 149.674 37.3062 149.557 37.3207H149.306V37.1167H151.888V37.3207H151.637C151.512 37.3058 151.385 37.323 151.269 37.3706C151.153 37.4183 151.052 37.4948 150.974 37.5928C150.883 37.7062 150.837 37.9783 150.837 38.3864V44.5763H150.654L145.764 38.6585V43.1932C145.764 43.6467 145.81 43.9187 145.901 44.0321C145.985 44.1129 146.086 44.175 146.196 44.2141C146.307 44.2532 146.424 44.2685 146.541 44.2589H146.815V44.4629H144.233V44.2589H144.484C144.609 44.2738 144.736 44.2566 144.852 44.209C144.968 44.1613 145.07 44.0848 145.147 43.9868C145.239 43.8734 145.284 43.6013 145.284 43.1932V38.069C145.137 37.8907 144.968 37.7308 144.782 37.5928C144.636 37.4908 144.473 37.4142 144.302 37.3661C144.145 37.3239 143.983 37.3085 143.822 37.3207V37.1167Z" fill="#FF1616"/>
<path d="M163.085 36.9353L163.268 39.2707H163.085C162.936 38.7817 162.678 38.3322 162.331 37.9556C162.104 37.7395 161.835 37.5717 161.54 37.4625C161.245 37.3533 160.931 37.3051 160.617 37.3207C160.192 37.3026 159.77 37.3957 159.393 37.5907C159.016 37.7857 158.697 38.0758 158.469 38.4317C158.047 39.1042 157.832 39.8845 157.852 40.6764C157.842 41.334 157.983 41.9851 158.263 42.581C158.481 43.104 158.856 43.5475 159.337 43.8507C159.745 44.1146 160.221 44.2562 160.708 44.2589C160.978 44.2624 161.246 44.2319 161.508 44.1682C161.764 44.0914 162.009 43.9848 162.239 43.8507V41.7421C162.264 41.4965 162.232 41.2486 162.148 41.0165C162.097 40.9006 162.009 40.8048 161.896 40.7445C161.692 40.6687 161.474 40.6378 161.257 40.6538V40.4497H164.136V40.6538H163.999C163.881 40.6386 163.762 40.6585 163.656 40.7111C163.55 40.7636 163.463 40.8463 163.405 40.9485C163.311 41.2022 163.272 41.4725 163.29 41.7421V43.9868C162.901 44.2012 162.486 44.3687 162.056 44.4856C161.614 44.587 161.162 44.6402 160.708 44.6443C159.269 44.6443 158.172 44.1682 157.441 43.2612C156.882 42.6016 156.582 41.7645 156.595 40.9032C156.595 40.2532 156.76 39.6136 157.075 39.0439C157.415 38.3643 157.947 37.7972 158.606 37.4114C159.19 37.0818 159.854 36.9171 160.525 36.9353C160.771 36.9332 161.016 36.956 161.257 37.0033C161.577 37.0753 161.89 37.1739 162.194 37.2981L162.605 37.4114C162.675 37.4057 162.741 37.3732 162.788 37.3207C162.842 37.199 162.873 37.0683 162.879 36.9353H163.085Z" fill="#FF1616"/>
<path d="M181.64 37.1167L181.845 39.4294H181.64C181.502 38.9406 181.252 38.4903 180.908 38.1143C180.63 37.8773 180.306 37.7005 179.955 37.5954C179.604 37.4903 179.235 37.4592 178.871 37.504C178.508 37.5489 178.157 37.6687 177.843 37.8558C177.529 38.0429 177.258 38.2931 177.047 38.5905C176.625 39.2629 176.41 40.0432 176.43 40.8352C176.422 41.4998 176.562 42.1579 176.841 42.7624C177.071 43.2775 177.444 43.7177 177.915 44.0321C178.323 44.296 178.799 44.4376 179.286 44.4403C179.549 44.4376 179.81 44.3994 180.063 44.3269C180.325 44.2584 180.578 44.1594 180.817 44.0321V41.9008C180.827 41.6556 180.796 41.4104 180.726 41.1753C180.665 41.0586 180.569 40.9635 180.451 40.9032C180.251 40.8466 180.042 40.8236 179.834 40.8352V40.6084H182.714V40.8352H182.576C182.462 40.8233 182.346 40.8422 182.242 40.8901C182.137 40.938 182.048 41.013 181.982 41.1072C181.891 41.3614 181.852 41.6313 181.868 41.9008V44.1455C181.478 44.3599 181.064 44.5274 180.634 44.6443C180.186 44.7581 179.725 44.8115 179.263 44.803C177.846 44.803 176.75 44.3496 176.018 43.4426C175.458 42.7751 175.158 41.9303 175.173 41.0619C175.186 40.3593 175.378 39.6714 175.729 39.0613C176.08 38.4512 176.581 37.9385 177.184 37.5702C177.773 37.2556 178.434 37.0993 179.103 37.1167C179.349 37.1146 179.594 37.1374 179.834 37.1847C180.154 37.2467 180.468 37.3378 180.771 37.4568C180.9 37.5209 181.039 37.5595 181.183 37.5702C181.218 37.5722 181.254 37.5648 181.286 37.5489C181.318 37.533 181.346 37.5091 181.365 37.4795C181.421 37.3662 181.452 37.2426 181.457 37.1167H181.64Z" fill="#FF1616"/>
<path d="M194.55 44.6216H192.562L190.049 41.1979H189.272V43.3292C189.272 43.7827 189.317 44.0775 189.432 44.1908C189.509 44.2752 189.605 44.3413 189.712 44.3845C189.819 44.4276 189.934 44.4467 190.049 44.4402H190.346V44.6216H187.169V44.4402H187.444C187.573 44.4526 187.703 44.4296 187.82 44.3736C187.937 44.3176 188.036 44.2309 188.106 44.1228C188.198 44.0094 188.221 43.76 188.221 43.3292V38.5678C188.221 38.1143 188.175 37.8195 188.083 37.7062C187.999 37.6253 187.899 37.5633 187.788 37.5242C187.678 37.4851 187.56 37.4698 187.444 37.4794H187.169V37.2754H189.866C190.45 37.2559 191.035 37.317 191.602 37.4568C191.974 37.5669 192.307 37.7792 192.562 38.069C192.817 38.3836 192.955 38.7762 192.951 39.18C192.955 39.6097 192.791 40.0243 192.494 40.3363C192.127 40.7183 191.646 40.9728 191.123 41.0619L192.654 43.1705C192.892 43.5377 193.193 43.8601 193.545 44.1228C193.852 44.302 194.195 44.4105 194.55 44.4402V44.6216ZM189.272 40.8578H189.592C190.161 40.8912 190.725 40.7313 191.191 40.4043C191.356 40.2596 191.489 40.0816 191.579 39.8823C191.67 39.6829 191.717 39.4667 191.717 39.248C191.728 39.0394 191.695 38.8308 191.621 38.6355C191.546 38.4403 191.431 38.2627 191.283 38.1143C190.974 37.8263 190.563 37.6714 190.14 37.6835C189.848 37.6962 189.557 37.7341 189.272 37.7969V40.8578Z" fill="#FF1616"/>
<path d="M202.639 37.1167C203.111 37.1153 203.579 37.2113 204.011 37.3986C204.444 37.586 204.833 37.8606 205.153 38.205C205.501 38.5623 205.773 38.9851 205.954 39.4485C206.134 39.912 206.219 40.4066 206.204 40.9032C206.221 41.4155 206.134 41.9261 205.95 42.405C205.766 42.8838 205.487 43.3214 205.13 43.692C204.8 44.04 204.403 44.3177 203.962 44.5082C203.521 44.6988 203.045 44.7981 202.564 44.8002C202.083 44.8024 201.606 44.7072 201.164 44.5206C200.721 44.3339 200.321 44.0597 199.988 43.7147C199.28 43.0118 198.937 42.0595 198.937 40.9259C198.923 40.3916 199.024 39.8606 199.233 39.368C199.442 38.8754 199.754 38.4326 200.148 38.069C200.822 37.4414 201.716 37.0997 202.639 37.1167ZM202.548 37.5021C202.243 37.4915 201.939 37.5515 201.662 37.6775C201.384 37.8034 201.14 37.9918 200.948 38.2277C200.445 38.8399 200.194 39.7242 200.194 40.9032C200.194 42.0822 200.445 43.0345 200.971 43.6694C201.154 43.9104 201.393 44.1042 201.667 44.2344C201.942 44.3646 202.244 44.4275 202.548 44.4176C202.878 44.4247 203.205 44.3545 203.503 44.2127C203.801 44.0708 204.061 43.8614 204.262 43.6013C204.719 43.0798 204.947 42.2183 204.947 41.0619C204.947 39.9055 204.696 38.8626 204.193 38.2504C203.999 38.004 203.749 37.8074 203.462 37.6771C203.176 37.5469 202.862 37.4869 202.548 37.5021Z" fill="#FF1616"/>
<path d="M216.098 37.4795V37.2754H218.703V37.4795H218.429C218.296 37.4742 218.163 37.5052 218.047 37.5692C217.93 37.6331 217.833 37.7275 217.766 37.8422C217.675 37.9556 217.652 38.205 217.652 38.6131V41.606C217.667 42.1888 217.59 42.7703 217.424 43.3292C217.259 43.763 216.953 44.1299 216.555 44.3722C216.025 44.6874 215.412 44.8375 214.796 44.803C213.973 44.803 213.379 44.667 212.945 44.3949C212.539 44.115 212.228 43.7198 212.054 43.2612C211.939 42.9438 211.894 42.3316 211.894 41.4473V38.5678C211.894 38.137 211.825 37.8196 211.688 37.6835C211.61 37.6091 211.516 37.5523 211.413 37.5171C211.311 37.4819 211.202 37.4691 211.094 37.4795H210.797V37.2754H214.019V37.4795H213.722C213.595 37.4671 213.467 37.4877 213.351 37.5394C213.235 37.5911 213.134 37.6721 213.059 37.7742C212.968 37.8876 212.922 38.1597 212.922 38.5678V41.7874C212.934 42.1139 212.964 42.4394 213.013 42.7624C213.039 43.0663 213.132 43.3607 213.288 43.624C213.45 43.8431 213.661 44.0217 213.905 44.1455C214.202 44.292 214.532 44.3622 214.864 44.3496C215.318 44.3524 215.766 44.2433 216.167 44.0321C216.508 43.851 216.781 43.5645 216.944 43.2159C217.081 42.8984 217.149 42.3316 217.149 41.5607V38.5678C217.149 38.1143 217.104 37.8422 216.989 37.7062C216.91 37.6246 216.814 37.5618 216.707 37.5225C216.6 37.4833 216.486 37.4685 216.372 37.4795H216.098Z" fill="#FF1616"/>
<path d="M225.238 41.1979V43.3293C225.238 43.7827 225.284 44.0775 225.398 44.1909C225.476 44.2752 225.572 44.3414 225.679 44.3845C225.785 44.4276 225.9 44.4467 226.015 44.4403H226.312V44.6216H223.136V44.4403H223.41C223.539 44.4502 223.669 44.426 223.785 44.3703C223.901 44.3145 224.001 44.2291 224.073 44.1228C224.172 43.8705 224.211 43.599 224.187 43.3293V38.5678C224.187 38.1143 224.142 37.8196 224.05 37.7062C223.965 37.6266 223.864 37.5653 223.754 37.5263C223.644 37.4872 223.527 37.4713 223.41 37.4795H223.136V37.2754H225.855C226.381 37.2572 226.906 37.3262 227.409 37.4795C227.792 37.6145 228.132 37.8494 228.392 38.1597C228.649 38.4909 228.785 38.8982 228.78 39.316C228.789 39.5857 228.741 39.8542 228.639 40.1042C228.536 40.3541 228.382 40.58 228.186 40.7671C227.775 41.1526 227.204 41.334 226.472 41.334H225.901L225.238 41.1979ZM225.238 40.8805L225.741 40.9712H226.13C226.317 40.97 226.501 40.9289 226.671 40.8507C226.84 40.7724 226.991 40.6589 227.112 40.5177C227.252 40.3693 227.361 40.1944 227.431 40.0036C227.502 39.8128 227.533 39.6098 227.524 39.4067C227.522 39.0955 227.46 38.7875 227.341 38.4998C227.22 38.2414 227.02 38.0272 226.769 37.8876C226.519 37.7463 226.235 37.6757 225.947 37.6835C225.707 37.6966 225.47 37.7346 225.238 37.7969V40.8805Z" fill="#FF1616"/>
<path d="M23.3991 10.7926C26.4027 10.7926 28.8376 8.37662 28.8376 5.39632C28.8376 2.41601 26.4027 0 23.3991 0C20.3956 0 17.9607 2.41601 17.9607 5.39632C17.9607 8.37662 20.3956 10.7926 23.3991 10.7926Z" fill="#FF1616"/>
<path d="M5.32419 21.3812C8.26466 21.3812 10.6484 19.0159 10.6484 16.0983C10.6484 13.1806 8.26466 10.8153 5.32419 10.8153C2.38372 10.8153 0 13.1806 0 16.0983C0 19.0159 2.38372 21.3812 5.32419 21.3812Z" fill="#FF1616"/>
<path d="M5.32419 39.2026C8.26466 39.2026 10.6484 36.8374 10.6484 33.9197C10.6484 31.002 8.26466 28.6367 5.32419 28.6367C2.38372 28.6367 0 31.002 0 33.9197C0 36.8374 2.38372 39.2026 5.32419 39.2026Z" fill="#FF1616"/>
<path d="M23.3991 48C26.3396 48 28.7233 45.6347 28.7233 42.7171C28.7233 39.7994 26.3396 37.4341 23.3991 37.4341C20.4587 37.4341 18.075 39.7994 18.075 42.7171C18.075 45.6347 20.4587 48 23.3991 48Z" fill="#FF1616"/>
<path d="M39.8286 39.2026C42.7691 39.2026 45.1528 36.8374 45.1528 33.9197C45.1528 31.002 42.7691 28.6367 39.8286 28.6367C36.8881 28.6367 34.5044 31.002 34.5044 33.9197C34.5044 36.8374 36.8881 39.2026 39.8286 39.2026Z" fill="#FF1616"/>
<path d="M39.8286 21.3812C42.7691 21.3812 45.1528 19.0159 45.1528 16.0983C45.1528 13.1806 42.7691 10.8153 39.8286 10.8153C36.8881 10.8153 34.5044 13.1806 34.5044 16.0983C34.5044 19.0159 36.8881 21.3812 39.8286 21.3812Z" fill="#FF1616"/>
<path d="M19.6059 21.9481C21.2339 21.9481 22.5537 20.6385 22.5537 19.0232C22.5537 17.4078 21.2339 16.0983 19.6059 16.0983C17.9779 16.0983 16.6582 17.4078 16.6582 19.0232C16.6582 20.6385 17.9779 21.9481 19.6059 21.9481Z" fill="#38B6FF"/>
<path d="M16.6582 27.7978C18.2862 27.7978 19.6059 26.4883 19.6059 24.8729C19.6059 23.2575 18.2862 21.948 16.6582 21.948C15.0302 21.948 13.7104 23.2575 13.7104 24.8729C13.7104 26.4883 15.0302 27.7978 16.6582 27.7978Z" fill="#38B6FF"/>
<path d="M19.6059 33.5116C21.2339 33.5116 22.5537 32.202 22.5537 30.5867C22.5537 28.9713 21.2339 27.6618 19.6059 27.6618C17.9779 27.6618 16.6582 28.9713 16.6582 30.5867C16.6582 32.202 17.9779 33.5116 19.6059 33.5116Z" fill="#38B6FF"/>
<path d="M27.1465 33.5116C28.7744 33.5116 30.0942 32.202 30.0942 30.5867C30.0942 28.9713 28.7744 27.6618 27.1465 27.6618C25.5185 27.6618 24.1987 28.9713 24.1987 30.5867C24.1987 32.202 25.5185 33.5116 27.1465 33.5116Z" fill="#38B6FF"/>
<path d="M30.0942 27.7978C31.7222 27.7978 33.0419 26.4883 33.0419 24.8729C33.0419 23.2575 31.7222 21.948 30.0942 21.948C28.4662 21.948 27.1465 23.2575 27.1465 24.8729C27.1465 26.4883 28.4662 27.7978 30.0942 27.7978Z" fill="#38B6FF"/>
<path d="M27.1465 21.9481C28.7744 21.9481 30.0942 20.6385 30.0942 19.0232C30.0942 17.4078 28.7744 16.0983 27.1465 16.0983C25.5185 16.0983 24.1987 17.4078 24.1987 19.0232C24.1987 20.6385 25.5185 21.9481 27.1465 21.9481Z" fill="#38B6FF"/>
</g>
<defs>
<clipPath id="clip0_18_6391">
<rect width="240" height="48" fill="white"/>
</clipPath>
</defs>
</svg>
